<?xml version="1.0" encoding="UTF-8"?>
<!-- Created with Inkscape (http://www.inkscape.org/) -->
<svg width="477.08mm" height="119.94mm" version="1.1" viewBox="0 0 477.08 119.94" xmlns="http://www.w3.org/2000/svg" xmlns:xlink="http://www.w3.org/1999/xlink">
 <defs>
  <filter id="filter4487-5" x="-.067139" y="-.067261" width="1.1343" height="1.1345" color-interpolation-filters="sRGB">
   <feGaussianBlur stdDeviation="11.369316"/>
  </filter>
  <linearGradient id="linearGradient36692" x1="94.956" x2="94.956" y1="83.144" y2="83.132" gradientUnits="userSpaceOnUse">
   <stop stop-color="#88C96E" offset="0"/>
   <stop stop-color="#86D859" offset="1"/>
  </linearGradient>
  <filter id="filter37673" x="-.058028" y="-.058132" width="1.1161" height="1.1163" color-interpolation-filters="sRGB">
   <feGaussianBlur stdDeviation="6.9814482"/>
  </filter>
  <clipPath id="clipPath45017">
   <rect x="675.78" y="330.72" width="355.41" height="354.77" ry="177.38" fill="#ccc"/>
  </clipPath>
  <linearGradient id="SVGID_4_" x1="3867.9" x2="3867.3" y1="35.736" y2="83.1" gradientTransform="matrix(-1 0 0 1 3960.8 0)" gradientUnits="userSpaceOnUse">
   <stop fill="url(#linearGradient964)" stop-color="#36495E" offset="0"/>
   <stop fill="url(#linearGradient964)" stop-color="#0A1C33" offset="1"/>
  </linearGradient>
  <linearGradient id="linearGradient64981" x1="433.35" x2="501.41" y1="1119.8" y2="1119.8" gradientTransform="translate(65.906 -.28487)" gradientUnits="userSpaceOnUse" xlink:href="#SVGID_4_"/>
  <linearGradient id="linearGradient65777" x1="433.35" x2="501.41" y1="1119.8" y2="1119.8" gradientTransform="translate(-7.2009 -.298)" gradientUnits="userSpaceOnUse" xlink:href="#SVGID_4_"/>
  <linearGradient id="linearGradient21425" x1="409.86" x2="1120.6" y1="1136.7" y2="1136.7" gradientUnits="userSpaceOnUse">
   <stop stop-color="#41B782" offset=".2"/>
   <stop stop-color="#86D169" offset="1"/>
  </linearGradient>
  <radialGradient id="radialGradient71725" cx="294.3" cy="60.383" r="175.13" gradientTransform="matrix(1 0 0 .13378 0 52.305)" gradientUnits="userSpaceOnUse">
   <stop stop-color="#6d736a" stop-opacity=".090485" offset="0"/>
   <stop stop-color="#fff" stop-opacity=".55974" offset="1"/>
  </radialGradient>
 </defs>
 <g display="none">
  <rect x="-52.98" y="-61.122" width="602.66" height="240.61" fill="#282a36" stroke="#fff" stroke-width=".265"/>
 </g>
 <g>
  <path d="m254.6 37.483v19.743c-1.4884-1.1637-3.333-1.7747-5.1793-2.073-1.9178-0.28714-3.8903-0.20185-5.7812 0.22309-2.4026 0.55166-4.6842 1.7677-6.337 3.6165-1.3562 1.5022-2.3072 3.3559-2.7675 5.325-0.49229 2.1075-0.52741 4.3041-0.26617 6.4462 0.27362 2.1486 0.96314 4.273 2.2072 6.0609 1.264 1.8639 3.0811 3.3696 5.2007 4.1553 2.2324 0.85736 4.6958 0.96975 7.0429 0.60805 1.3658-0.2144 2.6942-0.6621 3.902-1.3365 0.66126-0.35118 1.303-0.73884 1.924-1.1572v2.0309h8.7085v-44.172h-8.6542zm-115.01 3.0127c-1.2313 4.4774-2.4626 8.9548-3.6938 13.432-1.5958-4.6412-3.1916-9.2824-4.7873-13.924-2.3647 0.03646-4.7292 0.09707-7.094 0.11885h-4.8437c5.6335 14.56 11.267 29.121 16.901 43.681 3.7201-7.9859 7.4415-15.971 11.162-23.957 3.2037 7.9885 6.4077 15.977 9.6113 23.965 5.4205-14.563 10.841-29.127 16.262-43.69-3.8962 0.0014-7.7925 0.0032-11.689-0.02067-1.6108 4.6653-3.2222 9.3303-4.8333 13.996-1.6149-4.6965-3.2298-9.393-4.8447-14.09-2.3065 0.03505-4.6128 0.09533-6.9195 0.11472h-4.363l-0.77665 9.13e-4zm206.27 0.04754c-2.7989 0.05415-5.6055 0.66858-8.1049 1.9485-2.5497 1.2799-4.7799 3.2034-6.375 5.5727-1.414 2.0722-2.4058 4.4275-2.9181 6.8827-0.47774 2.2588-0.62667 4.5867-0.46631 6.8891 0.28607 4.015 1.8068 7.9612 4.4305 11.03 1.8206 2.1411 4.1908 3.7914 6.7818 4.8642 2.7168 1.0833 5.665 1.5089 8.5797 1.468 1.8091-0.03067 3.6159-0.31046 5.337-0.87417 1.3265-0.40264 2.6103-0.94276 3.8198-1.6205 0.7126-0.38126 1.4074-0.80225 2.0259-1.3255-1.1603-2.5133-2.3202-5.0268-3.4804-7.5401-0.56092 0.53183-1.1341 1.0584-1.802 1.4552-0.20275 0.12676-0.44871 0.26984-0.63357 0.36966-1.0303 0.56869-2.13 1.0301-3.2932 1.2379-0.65992 0.12797-1.3302 0.19709-2.0016 0.22591-0.11956 4e-3 -0.33731 0.0126-0.49517 0.01247-0.32488 0.0049-0.66809-0.0016-0.96146-0.0194-1.8673-0.08932-3.7371-0.61843-5.2875-1.6827-1.2954-0.85669-2.3325-2.0676-3.0589-3.4346-0.78867-1.4355-1.1945-3.0518-1.3446-4.6752-0.0144-0.15365-0.0327-0.3972-0.0438-0.5855-0.0788-1.3717 6e-3 -2.7617 0.35951-4.0933 0.0253-0.09509 0.0799-0.29477 0.12258-0.42784 0.67938-2.147 1.9127-4.166 3.7115-5.5523 1.6895-1.3124 3.8128-2.1084 5.9642-2.0697 1.5789 0.0051 3.1726 0.32993 4.5726 1.0764 1.2101 0.57882 2.3818 1.247 3.444 2.0698 0.1496 0.16239 0.25188 0.15535 0.29252-0.0726 1.0633-2.5551 2.1261-5.1105 3.19-7.6654-1.7234-1.1338-3.638-1.9418-5.5902-2.5893-2.1837-0.69126-4.4925-0.91466-6.775-0.8741zm73.516 14.25c-1.9236 0.05867-3.7612 0.88788-5.2285 2.106-0.58979 0.48007-1.1318 1.0185-1.6202 1.6013-0.6006-1.3883-1.8235-2.4431-3.2001-3.0261-1.6077-0.68189-3.4036-0.79175-5.1229-0.60213-1.4112 0.16567-2.7855 0.66368-3.9481 1.4856-0.85034 0.57758-1.5984 1.3008-2.2267 2.1131-0.12317-0.86076-0.24609-1.7215-0.36947-2.5823-2.4462 0-4.8924-3e-6 -7.3386 0v22.911h8.059c4e-3 -3.3116-8e-3 -6.6233 6e-3 -9.9347 0.0454-1.3205 0.26881-2.651 0.78041-3.8743 0.42119-0.97274 1.0137-1.9158 1.8871-2.5412 0.773-0.5243 1.8199-0.73259 2.6974-0.35257 0.47495 0.19414 0.67673 0.70388 0.83251 1.1537 0.34407 1.0668 0.21339 2.2007 0.23926 3.302v12.247h8.059c4e-3 -3.2804-8e-3 -6.5609 6e-3 -9.8412 0.0492-1.4656 0.30872-2.9481 0.93715-4.2819 0.48673-0.99349 1.1867-1.9553 2.2042-2.451 0.75724-0.34292 1.6877-0.47882 2.4516-0.08268 0.45649 0.24436 0.5619 0.79889 0.68144 1.2563 0.24815 1.1067 0.13779 2.247 0.16243 3.3708v12.03h8.0088c-2e-3 -5.6765 5e-3 -11.353-3e-3 -17.03-0.0262-1.5557-0.52327-3.1266-1.5349-4.3252-0.8261-0.98934-1.9031-1.7809-3.1312-2.1904-1.0527-0.36542-2.1777-0.48622-3.2875-0.46098zm42.096 0c-1.9236 0.05874-3.7613 0.88777-5.2284 2.106-0.59008 0.47978-1.131 1.0193-1.6202 1.6013-0.60071-1.3883-1.8235-2.4431-3.2001-3.0261-1.6078-0.68194-3.404-0.7917-5.1234-0.60213-1.4021 0.16516-2.7684 0.6567-3.9259 1.4705-0.85998 0.57961-1.6146 1.3093-2.2489 2.1282-0.12303-0.86075-0.24556-1.7216-0.36896-2.5823-2.4462 0-4.8924-3e-6 -7.3386 0v22.911h8.0589c4e-3 -3.3116-8e-3 -6.6233 6e-3 -9.9347 0.0452-1.3116 0.26548-2.6332 0.76946-3.85 0.42143-0.98104 1.0157-1.9331 1.8954-2.5636 0.77433-0.52681 1.8244-0.73526 2.7037-0.35295 0.46461 0.19018 0.664 0.68576 0.81984 1.1249 0.35242 1.0655 0.22378 2.201 0.24831 3.3028v12.274h8.0589c4e-3 -3.2804-8e-3 -6.5609 6e-3 -9.8412 0.0495-1.4651 0.30724-2.9478 0.93666-4.2809 0.48521-0.99332 1.1855-1.9529 2.2006-2.4505 0.75785-0.3442 1.6887-0.48021 2.4541-0.08526 0.45738 0.24452 0.56356 0.79909 0.68299 1.2573 0.24818 1.1067 0.1378 2.247 0.16243 3.3708v12.03h8.0088c-2e-3 -5.6765 5e-3 -11.353-3e-3 -17.03-0.0264-1.5557-0.52364-3.1267-1.5354-4.3252-0.83164-0.99624-1.9182-1.7916-3.1563-2.199-1.0452-0.35874-2.1613-0.4772-3.262-0.45237zm-87.732 0.05168c-2.2668 0.05256-4.5431 0.58652-6.5233 1.7108-2.3394 1.26-4.263 3.3251-5.2298 5.8119-0.90342 2.2584-1.0386 4.7668-0.67157 7.154 0.30091 1.9627 1.0936 3.8561 2.3452 5.4035 1.3968 1.7694 3.365 3.0419 5.503 3.7267 2.2795 0.74428 4.7273 0.8961 7.1005 0.61742 2.0278-0.23946 4.0174-0.92709 5.6921-2.1084 1.6091-1.1039 2.9042-2.646 3.7367-4.4092 1.1807-2.4348 1.4789-5.2402 1.0734-7.8995-0.32708-2.1044-1.2175-4.1232-2.5714-5.7687-1.3399-1.6166-3.1703-2.7848-5.1384-3.4855-1.7036-0.58989-3.5199-0.79699-5.3165-0.75293zm-58.508 0.14108c-1.0226 0.03431-1.9807 0.4529-2.9056 0.85336-1.6147 0.75472-3.0634 1.8285-4.3709 3.0312-0.53163 0.51301-1.0145 1.0772-1.433 1.6862-0.15777-1.4562-0.3156-2.9125-0.47334-4.3687h-7.8894v24.937h8.6542c4e-3 -3.3834-7e-3 -6.767 5e-3 -10.15 0.0673-1.7776 0.76004-3.5193 1.8896-4.8883 0.72633-0.85254 1.6281-1.578 2.6627-2.0187 1.1731-0.49408 2.4814-0.51494 3.7256-0.34603 0.1824 0.04397 0.33287 0.05062 0.27768-0.18313 0.14269-2.8558 0.28559-5.7116 0.42817-8.5674-0.19034 0.0048-0.38068 0.0096-0.57102 0.01447zm-93.95 0.05994c-1.9544 0.04729-3.9378 0.49979-5.5986 1.5633-1.0651 0.64892-2.0222 1.4818-2.7859 2.4695-0.13589-0.9636-0.27209-1.9271-0.40773-2.8908h-7.9287v24.937h8.7085c4e-3 -3.5587-7e-3 -7.1176 5e-3 -10.676 0.0485-1.9376 0.42311-3.9316 1.4793-5.5869 0.66541-1.0302 1.6598-1.9296 2.8941-2.1715 0.76899-0.14414 1.59-0.12982 2.3298 0.14201 0.67256 0.25597 1.1139 0.90611 1.3311 1.5675 0.28711 0.87824 0.16521 1.8127 0.19142 2.7195v14.006h8.7085c-3e-3 -6.1817 5e-3 -12.363-4e-3 -18.545-0.0375-1.6125-0.57393-3.2305-1.622-4.4701-1.033-1.2147-2.3913-2.1709-3.922-2.6406-1.0891-0.34521-2.2405-0.45916-3.3792-0.42375zm59.677 1e-3c-2.3662 0.06062-4.7272 0.66985-6.7855 1.8492-2.5919 1.4107-4.7473 3.6474-5.9638 6.3441-0.85871 1.8977-1.1647 4.0118-1.0436 6.0826 0.12075 2.5499 0.87548 5.1027 2.3678 7.1921 1.5642 2.2164 3.9308 3.8167 6.527 4.5692 1.891 0.55776 3.879 0.74706 5.8452 0.68086 2.0426-0.10465 4.0348-0.68071 5.9167-1.4582 0.8615-0.35817 1.685-0.79863 2.4934-1.2628-1.3126-2.2022-2.6251-4.4045-3.9383-6.6063-1.1009 0.68716-2.263 1.3129-3.5305 1.6268-1.7558 0.38693-3.7244 0.06737-5.1346-1.0921 6.9e-4 -0.08046 0.28792-0.10312 0.3992-0.16127 5.5553-1.7645 11.111-3.5288 16.666-5.2935-0.34681-2.1067-0.92908-4.1991-1.9738-6.0729-1.0006-1.8217-2.4647-3.3843-4.2147-4.5047-2.0313-1.2974-4.4571-1.866-6.8495-1.8968-0.2603-0.0056-0.52044 1.58e-4 -0.78073 0.0039zm-107.25 1.6702c2e-3 5.9818-4e-3 11.964 3e-3 17.945 0.0547 1.7078 0.62487 3.419 1.7336 4.7339 1.2874 1.5714 3.2148 2.5657 5.2246 2.7989 1.5562 0.17516 3.1542 0.05615 4.6561-0.39527 1.2233-0.38122 2.4163-0.91675 3.4129-1.7347 0.65311-0.53251 1.2366-1.1493 1.7451-1.8207 0.13189 0.96033 0.26452 1.9206 0.39584 2.881h7.9303v-24.937h-8.7085c-4e-3 3.5565 7e-3 7.1131-5e-3 10.669-9e-3 0.40596-0.0372 0.84092-0.0777 1.2122-0.1503 1.4137-0.5115 2.821-1.1759 4.0834-0.48123 0.87753-1.1572 1.6857-2.0463 2.1686-0.85891 0.44041-1.8906 0.49605-2.8128 0.23926-0.46508-0.13286-0.85494-0.46596-1.0625-0.90227-0.42594-0.80218-0.53797-1.7298-0.50384-2.6263v-14.844h-8.7085v0.52917zm200.31 4.8808c1.0788-0.01288 2.1773 0.32472 2.9926 1.0472 1.1601 0.97549 1.7332 2.4967 1.8056 3.9832 0.0899 1.5364-0.23444 3.1715-1.2322 4.3834-0.7153 0.88054-1.7736 1.4786-2.907 1.5905-1.0993 0.14142-2.2641-0.07987-3.1702-0.73849-1.2702-0.87649-2.0463-2.3507-2.2158-3.8685-0.17891-1.4978 0.0732-3.0966 0.95636-4.3478 0.76161-1.1168 2.0025-1.9459 3.3717-2.0337 0.13269-0.01045 0.2658-0.01509 0.39891-0.01584zm-124.93 0.46406c0.87094 0.02515 1.7281 0.22725 2.534 0.55359 0.7053 0.26104 1.338 0.692 1.8636 1.2275 0.4694 0.45252 0.8532 1.0134 1.06 1.6313v5.583c-0.64839 1.1699-1.643 2.1724-2.8873 2.6939-1.0302 0.45814-2.184 0.5505-3.2989 0.51207-1.5532-0.08909-3.0366-0.87746-4.0054-2.0904-0.8763-1.0568-1.3816-2.4059-1.4202-3.7778-0.0671-1.3544 0.26237-2.7502 1.0683-3.8557 1.1007-1.5872 3.0341-2.5762 4.9705-2.4797 0.0385 7.89e-4 0.0769 0.0016 0.11539 0.0024zm31.758-0.0072c1.0096 0.0053 2.1077 0.16328 2.8833 0.86717 0.52936 0.46853 0.98584 1.0299 1.2823 1.6753-3.0873 1.0416-6.1746 2.0832-9.262 3.1249 0.0286-1.3806 0.34002-2.8194 1.2267-3.9144 0.9048-1.1547 2.3843-1.7667 3.8346-1.7525 0.0117 2.72e-4 0.0234-6.72e-4 0.0351-4.55e-4z" fill="url(#radialGradient71725)"/>
 </g>
 <g transform="translate(159.34 -90.238)">
  <rect transform="matrix(.23886 0 0 .23886 -191.1 20.919)" x="181.2" y="338.42" width="406.41" height="405.68" ry="202.84" filter="url(#filter4487-5)"/>
  <rect x="-151.69" y="97.323" width="100.3" height="100.12" ry="50.062" fill="#ccc"/>
  <path d="m-132.95 110.85h61.054v61.054h-61.054z" fill="none" stroke-width=".28222"/>
  <g transform="matrix(.46998 0 0 -.46998 -137.26 167.12)">
   <polygon class="st2" points="94.9 83.1 95 83.1" fill="url(#linearGradient36692)"/>
  </g>
  <path transform="matrix(.28222 0 0 .28222 -155.06 -171.82)" d="m195.1 989.67c-79.84 0-144.11 64.276-144.11 144.12 0 75.694 57.785 137.36 131.82 143.56l6.1618-112.37c-5.3748-1.1107-10.463-3.6082-14.589-7.2373-6.1976-5.3932-10.152-13.266-10.764-21.459-0.69223-8.3544 2.1129-16.923 7.6033-23.256 5.7673-6.7639 14.479-10.908 23.371-11.068 0.54313-0.016 1.0864-0.018 1.629 0 8.1376 0.1991 16.131 3.6638 21.821 9.4955 2.8296 2.7912 4.8807 6.2335 6.7583 9.7053-2.127 1.0579-4.2545 2.1146-6.3819 3.1716-0.74222 0.267-1.3504 0.8884-2.1511 0.9551-3.4481 9.0299-6.8968 18.06-10.345 27.09 0.83294-0.4495 1.6629-0.9052 2.4948-1.3567 1.4909 2.5261 2.9024 5.1112 4.445 7.5988 0.51145 1.0144-0.19987 2.1965-1.2005 2.5587-3.1978 1.8517-6.7053 3.1711-10.333 3.8723l6.5857 112.3c74.038-6.2031 131.82-67.866 131.82-143.56 0-79.84-64.276-144.12-144.12-144.12zm0.0123 122.74c-5.4729 0.056-10.877 2.2896-14.757 6.1618h5.0267c1.2399 3.6514 2.4803 7.3021 3.7206 10.953 0.29727-0.74 0.59533-1.4796 0.89259-2.2196-1.1674-2.9112-2.3348-5.8225-3.5019-8.7338h12.197c1.3656 3.3715 2.7312 6.7429 4.0969 10.114 1.3742-4.2918 2.7495-8.5837 4.1237-12.876-3.1802-2.0571-6.92-3.2313-10.703-3.3828-0.36505-0.016-0.73004-0.021-1.0949-0.018zm-19.897 14.229c-0.15905 0.4485-0.30231 0.9028-0.42991 1.3612-1.5834 5.5632-0.77665 11.75 2.2121 16.706 0.19384 0.3364 0.51284 0.8168 0.65455 1.0384 1.9246 2.8684 4.5732 5.2363 7.6137 6.8698-3.3503-8.6586-6.7001-17.317-10.05-25.975zm20.708 15.449c-1.9285 4.1389-3.8569 8.2783-5.7854 12.417 3.5084 0.8772 7.2389 0.8534 10.733-0.08-0.23801-0.5929-0.47603-1.1848-0.71406-1.7777-1.4112-3.5196-2.8226-7.0397-4.2338-10.559zm-2.4888 135.77c0.55734 0.01 1.1073 0.042 1.6661 0.042h0.52067c0.55888 0 1.1088-0.035 1.6662-0.042z" filter="url(#filter37673)" opacity=".51"/>
  <g transform="matrix(.28222 0 0 .28222 -342.41 3.9854)" clip-path="url(#clipPath45017)" opacity=".23427">
   <g stroke-width=".81244">
    <path d="m857.06 362.99c-79.839 0-144.11 64.276-144.11 144.12l282.84 282.84c0-79.84 64.274-144.12 144.11-144.12z"/>
    <path d="m712.94 507.11c0 39.906 16.061 75.912 42.097 101.95l282.84 282.84c-26.03-26.036-42.094-62.042-42.094-101.95z"/>
    <path d="m755.04 609.06c23.349 23.349 54.72 38.68 89.725 41.613l282.84 282.84c-35.01-2.933-66.38-18.263-89.73-41.612z"/>
    <path d="m844.76 650.67 6.162-112.37 282.84 282.84-6.16 112.37z"/>
    <path d="m850.93 538.3c-5.375-1.11-10.464-3.608-14.59-7.237l282.84 282.84c4.13 3.629 9.21 6.126 14.59 7.237z"/>
    <path d="m836.34 531.06c-0.532-0.464-1.049-0.946-1.548-1.445l282.84 282.84c0.5 0.499 1.02 0.981 1.55 1.445z"/>
    <path d="m834.79 529.62c-5.304-5.304-8.656-12.525-9.216-20.014l282.85 282.84c0.56 7.488 3.91 14.709 9.21 20.014z"/>
    <path d="m825.57 509.6c-0.692-8.354 2.113-16.923 7.603-23.256l282.84 282.84c-5.49 6.333-8.3 14.901-7.6 23.256z"/>
    <path d="m833.18 486.35c5.768-6.764 14.48-10.908 23.371-11.068l282.84 282.84c-8.89 0.16-17.6 4.304-23.37 11.068z"/>
    <path d="m856.55 475.28c0.543-0.016 1.086-0.018 1.629-4e-3l282.84 282.84c-0.54-0.014-1.09-0.012-1.63 4e-3z"/>
    <path d="m858.18 475.28c8.013 0.196 15.887 3.559 21.558 9.23l282.85 282.84c-5.67-5.671-13.55-9.034-21.56-9.23z"/>
    <path d="m879.73 484.5c0.088 0.088 0.176 0.177 0.262 0.266l282.84 282.84c-0.09-0.089-0.18-0.177-0.26-0.265z"/>
    <path d="m880 484.77c0.039 0.037 0.077 0.075 0.115 0.113l282.84 282.84c-0.03-0.038-0.07-0.076-0.11-0.114z"/>
    <path d="m880.11 484.88c2.77 2.771 4.792 6.167 6.644 9.592l282.84 282.84c-1.85-3.425-3.88-6.821-6.65-9.592z"/>
    <path d="m886.76 494.48c-2.127 1.058-4.255 2.114-6.382 3.171l282.85 282.84c2.12-1.057 4.25-2.114 6.38-3.171z"/>
    <path d="m880.37 497.65c-0.742 0.267-1.351 0.889-2.151 0.956l282.84 282.84c0.81-0.066 1.41-0.688 2.16-0.955z"/>
    <path d="m878.22 498.6c-3.448 9.029-6.897 18.059-10.345 27.089l282.84 282.84c3.45-9.03 6.9-18.06 10.34-27.09z"/>
    <path d="m867.88 525.69c0.833-0.449 1.663-0.905 2.494-1.356l282.84 282.84c-0.83 0.452-1.66 0.907-2.49 1.357z"/>
    <path d="m870.37 524.34c1.491 2.526 2.903 5.111 4.445 7.598l282.84 282.84c-1.54-2.488-2.95-5.073-4.45-7.599z"/>
    <path d="m874.82 531.93c0.512 1.015-0.199 2.197-1.2 2.559l282.84 282.84c1-0.362 1.71-1.545 1.2-2.559z"/>
    <path d="m873.62 534.49c-3.198 1.852-6.705 3.171-10.333 3.872l282.85 282.84c3.62-0.701 7.13-2.021 10.33-3.872z"/>
    <path d="m863.28 538.36 6.586 112.3 282.84 282.84-6.58-112.3z"/>
    <path d="m869.87 650.67c74.037-6.203 131.82-67.866 131.82-143.56l282.85 282.84c0 75.695-57.79 137.36-131.83 143.56z"/>
    <path d="m1001.7 507.11c0-39.92-16.066-75.949-42.115-102l282.84 282.84c26.05 26.049 42.12 62.078 42.12 102z"/>
    <path d="m959.58 405.11c-26.048-26.049-62.077-42.118-102-42.118l282.84 282.84c39.92 0 75.95 16.069 102 42.118z"/>
    <path d="m857.58 362.99h-0.521l282.84 282.84h0.52z"/>
    <path d="m857.07 485.74c-5.472 0.056-10.876 2.29-14.757 6.162l282.84 282.84c3.89-3.873 9.29-6.107 14.76-6.162z"/>
    <path d="m842.31 491.9h5.027l282.84 282.84h-5.03z"/>
    <path d="m847.34 491.9c1.24 3.651 2.48 7.302 3.72 10.953l282.84 282.84c-1.24-3.651-2.48-7.302-3.72-10.953z"/>
    <path d="m851.06 502.85c0.298-0.74 0.596-1.479 0.893-2.219l282.84 282.84c-0.29 0.74-0.59 1.48-0.89 2.22z"/>
    <path d="m851.95 500.63c-1.167-2.912-2.335-5.823-3.502-8.734l282.84 282.84c1.17 2.911 2.34 5.822 3.5 8.733z"/>
    <path d="m848.45 491.9h12.197l282.84 282.84h-12.2z"/>
    <path d="m860.65 491.9c1.366 3.371 2.731 6.743 4.097 10.114l282.85 282.84c-1.37-3.372-2.73-6.743-4.1-10.114z"/>
    <path d="m864.74 502.01c1.374-4.292 2.75-8.583 4.124-12.875l282.84 282.84c-1.37 4.292-2.75 8.584-4.12 12.876z"/>
    <path d="m868.87 489.14c-3.18-2.057-6.92-3.232-10.704-3.383l282.85 282.84c3.78 0.151 7.52 1.325 10.7 3.382z"/>
    <path d="m858.16 485.76c-0.365-0.016-0.73-0.022-1.095-0.018l282.84 282.84c0.37-4e-3 0.73 2e-3 1.1 0.018z"/>
    <path d="m857.07 485.74-0.012-122.74 282.84 282.84 0.01 122.74z"/>
    <path d="m837.17 499.97c-0.159 0.449-0.302 0.903-0.429 1.361l282.85 282.84c0.12-0.458 0.27-0.913 0.43-1.361z"/>
    <path d="m836.74 501.33c-1.584 5.564-0.777 11.75 2.212 16.706l282.84 282.84c-2.99-4.956-3.8-11.143-2.21-16.706z"/>
    <path d="m838.96 518.03c0.193 0.337 0.512 0.817 0.654 1.039l282.84 282.84c-0.14-0.222-0.46-0.702-0.65-1.039z"/>
    <path d="m839.61 519.07c0.754 1.123 1.618 2.169 2.574 3.125l282.85 282.84c-0.96-0.956-1.82-2.002-2.58-3.125z"/>
    <path d="m842.18 522.2c1.485 1.485 3.19 2.751 5.04 3.745l282.85 282.84c-1.85-0.994-3.56-2.259-5.04-3.744z"/>
    <path d="m847.22 525.94c-3.35-8.659-6.7-17.317-10.051-25.976l282.85 282.84c3.35 8.659 6.7 17.317 10.05 25.975z"/>
    <path d="m837.17 499.97 19.885-136.97 282.84 282.84-19.88 136.97z"/>
    <path d="m857.88 515.42c-1.928 4.139-3.857 8.279-5.785 12.417l282.84 282.84c1.93-4.139 3.85-8.278 5.78-12.417z"/>
    <path d="m852.1 527.83c3.508 0.878 7.239 0.854 10.733-0.08l282.84 282.84c-3.49 0.934-7.22 0.957-10.73 0.08z"/>
    <path d="m862.83 527.75c-0.238-0.593-0.476-1.185-0.714-1.778l282.85 282.84c0.23 0.593 0.47 1.185 0.71 1.778z"/>
    <path d="m862.11 525.97c-1.411-3.519-2.823-7.039-4.234-10.559l282.84 282.84c1.41 3.519 2.83 7.04 4.24 10.559z"/>
    <path d="m857.88 515.42-0.823-152.42 282.84 282.84 0.82 152.42z"/>
    <path d="m855.39 651.18c0.558 6e-3 1.108 0.041 1.667 0.041l282.84 282.84c-0.56 0-1.11-0.036-1.67-0.042z"/>
    <path d="m857.06 651.22h0.52l282.84 282.84h-0.52z"/>
    <path d="m857.58 651.22c0.559 0 1.109-0.035 1.666-0.041l282.85 282.84c-0.56 7e-3 -1.11 0.042-1.67 0.042z"/>
    <path d="m859.24 651.18-2.187-288.19 282.84 282.84 2.19 288.19z"/>
   </g>
   <g stroke-width=".81244">
    <path d="m857.06 362.99c-79.839 0-144.11 64.276-144.11 144.12l282.84 282.84c0-79.84 64.274-144.12 144.11-144.12z"/>
    <path d="m712.94 507.11c0 39.906 16.061 75.912 42.097 101.95l282.84 282.84c-26.03-26.036-42.094-62.042-42.094-101.95z"/>
    <path d="m755.04 609.06c23.349 23.349 54.72 38.68 89.725 41.613l282.84 282.84c-35.01-2.933-66.38-18.263-89.73-41.612z"/>
    <path d="m844.76 650.67 6.162-112.37 282.84 282.84-6.16 112.37z"/>
    <path d="m850.93 538.3c-5.375-1.11-10.464-3.608-14.59-7.237l282.84 282.84c4.13 3.629 9.21 6.126 14.59 7.237z"/>
    <path d="m836.34 531.06c-0.532-0.464-1.049-0.946-1.548-1.445l282.84 282.84c0.5 0.499 1.02 0.981 1.55 1.445z"/>
    <path d="m834.79 529.62c-5.304-5.304-8.656-12.525-9.216-20.014l282.85 282.84c0.56 7.488 3.91 14.709 9.21 20.014z"/>
    <path d="m825.57 509.6c-0.692-8.354 2.113-16.923 7.603-23.256l282.84 282.84c-5.49 6.333-8.3 14.901-7.6 23.256z"/>
    <path d="m833.18 486.35c5.768-6.764 14.48-10.908 23.371-11.068l282.84 282.84c-8.89 0.16-17.6 4.304-23.37 11.068z"/>
    <path d="m856.55 475.28c0.543-0.016 1.086-0.018 1.629-4e-3l282.84 282.84c-0.54-0.014-1.09-0.012-1.63 4e-3z"/>
    <path d="m858.18 475.28c8.013 0.196 15.887 3.559 21.558 9.23l282.85 282.84c-5.67-5.671-13.55-9.034-21.56-9.23z"/>
    <path d="m879.73 484.5c0.088 0.088 0.176 0.177 0.262 0.266l282.84 282.84c-0.09-0.089-0.18-0.177-0.26-0.265z"/>
    <path d="m880 484.77c0.039 0.037 0.077 0.075 0.115 0.113l282.84 282.84c-0.03-0.038-0.07-0.076-0.11-0.114z"/>
    <path d="m880.11 484.88c2.77 2.771 4.792 6.167 6.644 9.592l282.84 282.84c-1.85-3.425-3.88-6.821-6.65-9.592z"/>
    <path d="m886.76 494.48c-2.127 1.058-4.255 2.114-6.382 3.171l282.85 282.84c2.12-1.057 4.25-2.114 6.38-3.171z"/>
    <path d="m880.37 497.65c-0.742 0.267-1.351 0.889-2.151 0.956l282.84 282.84c0.81-0.066 1.41-0.688 2.16-0.955z"/>
    <path d="m878.22 498.6c-3.448 9.029-6.897 18.059-10.345 27.089l282.84 282.84c3.45-9.03 6.9-18.06 10.34-27.09z"/>
    <path d="m867.88 525.69c0.833-0.449 1.663-0.905 2.494-1.356l282.84 282.84c-0.83 0.452-1.66 0.907-2.49 1.357z"/>
    <path d="m870.37 524.34c1.491 2.526 2.903 5.111 4.445 7.598l282.84 282.84c-1.54-2.488-2.95-5.073-4.45-7.599z"/>
    <path d="m874.82 531.93c0.512 1.015-0.199 2.197-1.2 2.559l282.84 282.84c1-0.362 1.71-1.545 1.2-2.559z"/>
    <path d="m873.62 534.49c-3.198 1.852-6.705 3.171-10.333 3.872l282.85 282.84c3.62-0.701 7.13-2.021 10.33-3.872z"/>
    <path d="m863.28 538.36 6.586 112.3 282.84 282.84-6.58-112.3z"/>
    <path d="m869.87 650.67c74.037-6.203 131.82-67.866 131.82-143.56l282.85 282.84c0 75.695-57.79 137.36-131.83 143.56z"/>
    <path d="m1001.7 507.11c0-39.92-16.066-75.949-42.115-102l282.84 282.84c26.05 26.049 42.12 62.078 42.12 102z"/>
    <path d="m959.58 405.11c-26.048-26.049-62.077-42.118-102-42.118l282.84 282.84c39.92 0 75.95 16.069 102 42.118z"/>
    <path d="m857.58 362.99h-0.521l282.84 282.84h0.52z"/>
    <path d="m857.07 485.74c-5.472 0.056-10.876 2.29-14.757 6.162l282.84 282.84c3.89-3.873 9.29-6.107 14.76-6.162z"/>
    <path d="m842.31 491.9h5.027l282.84 282.84h-5.03z"/>
    <path d="m847.34 491.9c1.24 3.651 2.48 7.302 3.72 10.953l282.84 282.84c-1.24-3.651-2.48-7.302-3.72-10.953z"/>
    <path d="m851.06 502.85c0.298-0.74 0.596-1.479 0.893-2.219l282.84 282.84c-0.29 0.74-0.59 1.48-0.89 2.22z"/>
    <path d="m851.95 500.63c-1.167-2.912-2.335-5.823-3.502-8.734l282.84 282.84c1.17 2.911 2.34 5.822 3.5 8.733z"/>
    <path d="m848.45 491.9h12.197l282.84 282.84h-12.2z"/>
    <path d="m860.65 491.9c1.366 3.371 2.731 6.743 4.097 10.114l282.85 282.84c-1.37-3.372-2.73-6.743-4.1-10.114z"/>
    <path d="m864.74 502.01c1.374-4.292 2.75-8.583 4.124-12.875l282.84 282.84c-1.37 4.292-2.75 8.584-4.12 12.876z"/>
    <path d="m868.87 489.14c-3.18-2.057-6.92-3.232-10.704-3.383l282.85 282.84c3.78 0.151 7.52 1.325 10.7 3.382z"/>
    <path d="m858.16 485.76c-0.365-0.016-0.73-0.022-1.095-0.018l282.84 282.84c0.37-4e-3 0.73 2e-3 1.1 0.018z"/>
    <path d="m857.07 485.74-0.012-122.74 282.84 282.84 0.01 122.74z"/>
    <path d="m837.17 499.97c-0.159 0.449-0.302 0.903-0.429 1.361l282.85 282.84c0.12-0.458 0.27-0.913 0.43-1.361z"/>
    <path d="m836.74 501.33c-1.584 5.564-0.777 11.75 2.212 16.706l282.84 282.84c-2.99-4.956-3.8-11.143-2.21-16.706z"/>
    <path d="m838.96 518.03c0.193 0.337 0.512 0.817 0.654 1.039l282.84 282.84c-0.14-0.222-0.46-0.702-0.65-1.039z"/>
    <path d="m839.61 519.07c0.754 1.123 1.618 2.169 2.574 3.125l282.85 282.84c-0.96-0.956-1.82-2.002-2.58-3.125z"/>
    <path d="m842.18 522.2c1.485 1.485 3.19 2.751 5.04 3.745l282.85 282.84c-1.85-0.994-3.56-2.259-5.04-3.744z"/>
    <path d="m847.22 525.94c-3.35-8.659-6.7-17.317-10.051-25.976l282.85 282.84c3.35 8.659 6.7 17.317 10.05 25.975z"/>
    <path d="m837.17 499.97 19.885-136.97 282.84 282.84-19.88 136.97z"/>
    <path d="m857.88 515.42c-1.928 4.139-3.857 8.279-5.785 12.417l282.84 282.84c1.93-4.139 3.85-8.278 5.78-12.417z"/>
    <path d="m852.1 527.83c3.508 0.878 7.239 0.854 10.733-0.08l282.84 282.84c-3.49 0.934-7.22 0.957-10.73 0.08z"/>
    <path d="m862.83 527.75c-0.238-0.593-0.476-1.185-0.714-1.778l282.85 282.84c0.23 0.593 0.47 1.185 0.71 1.778z"/>
    <path d="m862.11 525.97c-1.411-3.519-2.823-7.039-4.234-10.559l282.84 282.84c1.41 3.519 2.83 7.04 4.24 10.559z"/>
    <path d="m857.88 515.42-0.823-152.42 282.84 282.84 0.82 152.42z"/>
    <path d="m855.39 651.18c0.558 6e-3 1.108 0.041 1.667 0.041l282.84 282.84c-0.56 0-1.11-0.036-1.67-0.042z"/>
    <path d="m857.06 651.22h0.52l282.84 282.84h-0.52z"/>
    <path d="m857.58 651.22c0.559 0 1.109-0.035 1.666-0.041l282.85 282.84c-0.56 7e-3 -1.11 0.042-1.67 0.042z"/>
    <path d="m859.24 651.18-2.187-288.19 282.84 282.84 2.19 288.19z"/>
   </g>
   <g stroke-width=".81244">
    <path d="m857.06 362.99c-79.839 0-144.11 64.276-144.11 144.12l282.84 282.84c0-79.84 64.274-144.12 144.11-144.12z"/>
    <path d="m712.94 507.11c0 39.906 16.061 75.912 42.097 101.95l282.84 282.84c-26.03-26.036-42.094-62.042-42.094-101.95z"/>
    <path d="m755.04 609.06c23.349 23.349 54.72 38.68 89.725 41.613l282.84 282.84c-35.01-2.933-66.38-18.263-89.73-41.612z"/>
    <path d="m844.76 650.67 6.162-112.37 282.84 282.84-6.16 112.37z"/>
    <path d="m850.93 538.3c-5.375-1.11-10.464-3.608-14.59-7.237l282.84 282.84c4.13 3.629 9.21 6.126 14.59 7.237z"/>
    <path d="m836.34 531.06c-0.532-0.464-1.049-0.946-1.548-1.445l282.84 282.84c0.5 0.499 1.02 0.981 1.55 1.445z"/>
    <path d="m834.79 529.62c-5.304-5.304-8.656-12.525-9.216-20.014l282.85 282.84c0.56 7.488 3.91 14.709 9.21 20.014z"/>
    <path d="m825.57 509.6c-0.692-8.354 2.113-16.923 7.603-23.256l282.84 282.84c-5.49 6.333-8.3 14.901-7.6 23.256z"/>
    <path d="m833.18 486.35c5.768-6.764 14.48-10.908 23.371-11.068l282.84 282.84c-8.89 0.16-17.6 4.304-23.37 11.068z"/>
    <path d="m856.55 475.28c0.543-0.016 1.086-0.018 1.629-4e-3l282.84 282.84c-0.54-0.014-1.09-0.012-1.63 4e-3z"/>
    <path d="m858.18 475.28c8.013 0.196 15.887 3.559 21.558 9.23l282.85 282.84c-5.67-5.671-13.55-9.034-21.56-9.23z"/>
    <path d="m879.73 484.5c0.088 0.088 0.176 0.177 0.262 0.266l282.84 282.84c-0.09-0.089-0.18-0.177-0.26-0.265z"/>
    <path d="m880 484.77c0.039 0.037 0.077 0.075 0.115 0.113l282.84 282.84c-0.03-0.038-0.07-0.076-0.11-0.114z"/>
    <path d="m880.11 484.88c2.77 2.771 4.792 6.167 6.644 9.592l282.84 282.84c-1.85-3.425-3.88-6.821-6.65-9.592z"/>
    <path d="m886.76 494.48c-2.127 1.058-4.255 2.114-6.382 3.171l282.85 282.84c2.12-1.057 4.25-2.114 6.38-3.171z"/>
    <path d="m880.37 497.65c-0.742 0.267-1.351 0.889-2.151 0.956l282.84 282.84c0.81-0.066 1.41-0.688 2.16-0.955z"/>
    <path d="m878.22 498.6c-3.448 9.029-6.897 18.059-10.345 27.089l282.84 282.84c3.45-9.03 6.9-18.06 10.34-27.09z"/>
    <path d="m867.88 525.69c0.833-0.449 1.663-0.905 2.494-1.356l282.84 282.84c-0.83 0.452-1.66 0.907-2.49 1.357z"/>
    <path d="m870.37 524.34c1.491 2.526 2.903 5.111 4.445 7.598l282.84 282.84c-1.54-2.488-2.95-5.073-4.45-7.599z"/>
    <path d="m874.82 531.93c0.512 1.015-0.199 2.197-1.2 2.559l282.84 282.84c1-0.362 1.71-1.545 1.2-2.559z"/>
    <path d="m873.62 534.49c-3.198 1.852-6.705 3.171-10.333 3.872l282.85 282.84c3.62-0.701 7.13-2.021 10.33-3.872z"/>
    <path d="m863.28 538.36 6.586 112.3 282.84 282.84-6.58-112.3z"/>
    <path d="m869.87 650.67c74.037-6.203 131.82-67.866 131.82-143.56l282.85 282.84c0 75.695-57.79 137.36-131.83 143.56z"/>
    <path d="m1001.7 507.11c0-39.92-16.066-75.949-42.115-102l282.84 282.84c26.05 26.049 42.12 62.078 42.12 102z"/>
    <path d="m959.58 405.11c-26.048-26.049-62.077-42.118-102-42.118l282.84 282.84c39.92 0 75.95 16.069 102 42.118z"/>
    <path d="m857.58 362.99h-0.521l282.84 282.84h0.52z"/>
    <path d="m857.07 485.74c-5.472 0.056-10.876 2.29-14.757 6.162l282.84 282.84c3.89-3.873 9.29-6.107 14.76-6.162z"/>
    <path d="m842.31 491.9h5.027l282.84 282.84h-5.03z"/>
    <path d="m847.34 491.9c1.24 3.651 2.48 7.302 3.72 10.953l282.84 282.84c-1.24-3.651-2.48-7.302-3.72-10.953z"/>
    <path d="m851.06 502.85c0.298-0.74 0.596-1.479 0.893-2.219l282.84 282.84c-0.29 0.74-0.59 1.48-0.89 2.22z"/>
    <path d="m851.95 500.63c-1.167-2.912-2.335-5.823-3.502-8.734l282.84 282.84c1.17 2.911 2.34 5.822 3.5 8.733z"/>
    <path d="m848.45 491.9h12.197l282.84 282.84h-12.2z"/>
    <path d="m860.65 491.9c1.366 3.371 2.731 6.743 4.097 10.114l282.85 282.84c-1.37-3.372-2.73-6.743-4.1-10.114z"/>
    <path d="m864.74 502.01c1.374-4.292 2.75-8.583 4.124-12.875l282.84 282.84c-1.37 4.292-2.75 8.584-4.12 12.876z"/>
    <path d="m868.87 489.14c-3.18-2.057-6.92-3.232-10.704-3.383l282.85 282.84c3.78 0.151 7.52 1.325 10.7 3.382z"/>
    <path d="m858.16 485.76c-0.365-0.016-0.73-0.022-1.095-0.018l282.84 282.84c0.37-4e-3 0.73 2e-3 1.1 0.018z"/>
    <path d="m857.07 485.74-0.012-122.74 282.84 282.84 0.01 122.74z"/>
    <path d="m837.17 499.97c-0.159 0.449-0.302 0.903-0.429 1.361l282.85 282.84c0.12-0.458 0.27-0.913 0.43-1.361z"/>
    <path d="m836.74 501.33c-1.584 5.564-0.777 11.75 2.212 16.706l282.84 282.84c-2.99-4.956-3.8-11.143-2.21-16.706z"/>
    <path d="m838.96 518.03c0.193 0.337 0.512 0.817 0.654 1.039l282.84 282.84c-0.14-0.222-0.46-0.702-0.65-1.039z"/>
    <path d="m839.61 519.07c0.754 1.123 1.618 2.169 2.574 3.125l282.85 282.84c-0.96-0.956-1.82-2.002-2.58-3.125z"/>
    <path d="m842.18 522.2c1.485 1.485 3.19 2.751 5.04 3.745l282.85 282.84c-1.85-0.994-3.56-2.259-5.04-3.744z"/>
    <path d="m847.22 525.94c-3.35-8.659-6.7-17.317-10.051-25.976l282.85 282.84c3.35 8.659 6.7 17.317 10.05 25.975z"/>
    <path d="m837.17 499.97 19.885-136.97 282.84 282.84-19.88 136.97z"/>
    <path d="m857.88 515.42c-1.928 4.139-3.857 8.279-5.785 12.417l282.84 282.84c1.93-4.139 3.85-8.278 5.78-12.417z"/>
    <path d="m852.1 527.83c3.508 0.878 7.239 0.854 10.733-0.08l282.84 282.84c-3.49 0.934-7.22 0.957-10.73 0.08z"/>
    <path d="m862.83 527.75c-0.238-0.593-0.476-1.185-0.714-1.778l282.85 282.84c0.23 0.593 0.47 1.185 0.71 1.778z"/>
    <path d="m862.11 525.97c-1.411-3.519-2.823-7.039-4.234-10.559l282.84 282.84c1.41 3.519 2.83 7.04 4.24 10.559z"/>
    <path d="m857.88 515.42-0.823-152.42 282.84 282.84 0.82 152.42z"/>
    <path d="m855.39 651.18c0.558 6e-3 1.108 0.041 1.667 0.041l282.84 282.84c-0.56 0-1.11-0.036-1.67-0.042z"/>
    <path d="m857.06 651.22h0.52l282.84 282.84h-0.52z"/>
    <path d="m857.58 651.22c0.559 0 1.109-0.035 1.666-0.041l282.85 282.84c-0.56 7e-3 -1.11 0.042-1.67 0.042z"/>
    <path d="m859.24 651.18-2.187-288.19 282.84 282.84 2.19 288.19z"/>
   </g>
   <path d="m857.06 362.99c-79.84 0-144.11 64.276-144.11 144.12 0 75.694 57.785 137.36 131.82 143.56l6.1618-112.37c-5.3748-1.1107-10.463-3.6081-14.589-7.2373-6.1976-5.3931-10.152-13.266-10.764-21.459-0.69223-8.3544 2.1129-16.923 7.6033-23.256 5.7673-6.7638 14.479-10.908 23.371-11.068 0.54313-0.0161 1.0864-0.0177 1.629-4e-3 8.1376 0.19913 16.131 3.6638 21.821 9.4955 2.8296 2.7911 4.8807 6.2334 6.7583 9.7053-2.127 1.0579-4.2545 2.1146-6.3819 3.1716-0.74222 0.26701-1.3504 0.88837-2.1511 0.95506-3.4481 9.03-6.8968 18.06-10.345 27.09 0.83294-0.44946 1.6629-0.90523 2.4948-1.3567 1.4909 2.5261 2.9024 5.1112 4.445 7.5988 0.51145 1.0144-0.19987 2.1966-1.2005 2.5587-3.1978 1.8518-6.7053 3.1711-10.333 3.8723l6.5857 112.3c74.038-6.2032 131.82-67.866 131.82-143.56 0-79.84-64.276-144.12-144.12-144.12zm0.0123 122.74c-5.4729 0.0555-10.877 2.2895-14.757 6.1618h5.0267c1.2399 3.6514 2.4803 7.3021 3.7206 10.953 0.29727-0.73999 0.59533-1.4796 0.89259-2.2196-1.1674-2.9113-2.3348-5.8225-3.5019-8.7338h12.197c1.3656 3.3715 2.7312 6.7429 4.0969 10.114 1.3742-4.2918 2.7495-8.5836 4.1237-12.875-3.1802-2.0572-6.92-3.2314-10.703-3.3829-0.36505-0.0158-0.73004-0.0215-1.0949-0.0179zm-19.897 14.229c-0.15905 0.44849-0.30231 0.9028-0.42991 1.3612-1.5834 5.5632-0.77665 11.75 2.2121 16.706 0.19384 0.33638 0.51284 0.81679 0.65455 1.0384 1.9246 2.8684 4.5732 5.2363 7.6137 6.8698-3.3503-8.6586-6.7001-17.317-10.05-25.975zm20.708 15.449c-1.9285 4.1389-3.8569 8.2783-5.7854 12.417 3.5084 0.87724 7.2389 0.85341 10.733-0.0803-0.23801-0.59294-0.47603-1.1848-0.71406-1.7777-1.4112-3.5195-2.8226-7.0397-4.2338-10.559zm-2.4888 135.77c0.55734 6e-3 1.1073 0.0416 1.6661 0.0416h0.52067c0.55888 0 1.1088-0.0353 1.6662-0.0416z"/>
  </g>
  <path d="m-100.53 106.4c-22.532 0-40.672 18.14-40.672 40.673 0 21.362 16.308 38.765 37.203 40.516l1.739-31.713c-1.5169-0.31346-2.953-1.0183-4.1174-2.0425-1.7491-1.5221-2.865-3.7439-3.038-6.0562-0.19537-2.3578 0.59631-4.776 2.1458-6.5634 1.6277-1.9089 4.0864-3.0785 6.5957-3.1236 0.15329-5e-3 0.30662-5e-3 0.45973 0 2.2966 0.0562 4.5525 1.034 6.1582 2.6798 0.79858 0.78774 1.3775 1.7592 1.9073 2.7391-0.60029 0.29856-1.2007 0.59678-1.8011 0.89509-0.20947 0.0754-0.3811 0.25073-0.60709 0.26955-0.97314 2.5484-1.9464 5.0968-2.9196 7.6453 0.23508-0.12686 0.4693-0.25547 0.70407-0.38289 0.42077 0.71292 0.81913 1.4425 1.2545 2.1446 0.14434 0.28628-0.05641 0.6199-0.33881 0.72212-0.90248 0.52259-1.8924 0.89495-2.9162 1.0928l1.8586 31.695c20.895-1.7507 37.204-19.153 37.204-40.516 0-22.532-18.14-40.673-40.673-40.673zm3e-3 34.641c-1.5446 0.0158-3.0696 0.64618-4.1648 1.739h1.4186c0.34993 1.0305 0.69998 2.0608 1.05 3.0913 0.0839-0.20884 0.16802-0.41757 0.25191-0.62642-0.32946-0.8216-0.65892-1.6432-0.98831-2.4649h3.4423c0.38539 0.95151 0.77082 1.903 1.1562 2.8545 0.38782-1.2112 0.77598-2.4225 1.1638-3.6338-0.89754-0.58056-1.953-0.91195-3.0208-0.9547-0.10303-5e-3 -0.20604-6e-3 -0.30901-5e-3zm-5.6154 4.0158c-0.0449 0.12658-0.0853 0.25479-0.12133 0.38416-0.44688 1.5701-0.21919 3.3161 0.6243 4.7148 0.0547 0.0949 0.14474 0.23051 0.18473 0.29306 0.54317 0.80952 1.2907 1.4778 2.1488 1.9388-0.94552-2.4436-1.8909-4.8872-2.8364-7.3308zm5.8442 4.36c-0.54427 1.1681-1.0885 2.3363-1.6328 3.5044 0.99015 0.24757 2.043 0.24085 3.0292-0.0226-0.06717-0.16733-0.13435-0.33437-0.20152-0.5017-0.39827-0.99331-0.7966-1.9868-1.1949-2.98z" fill="#e4e4e4"/>
  <g fill="#e4e4e4" stroke-width="1.2501" aria-label="Comm">
   <path d="m198.98 165.46q-0.60006 0.50005-2.2502 1.3501-1.6002 0.85008-3.9504 1.5002-2.3502 0.65006-5.2005 0.60006-4.3504-0.10001-7.8008-1.5502-3.4003-1.5002-5.8006-4.0504-2.3502-2.5503-3.6004-5.8506-1.2501-3.3003-1.2501-7.0507 0-4.2004 1.2501-7.7008 1.3001-3.5004 3.6504-6.0506 2.4002-2.5502 5.7006-3.9504t7.3007-1.4001q3.7004 0 6.5506 1.0001 2.8503 1.0001 4.6505 2.1502l-2.8503 6.8507q-1.2501-0.9501-3.3503-1.9502-2.0502-1.0501-4.7505-1.0501-2.1002 0-4.0504 0.90009-1.9002 0.85008-3.4003 2.4502-1.4502 1.6002-2.3002 3.7504-0.85009 2.1002-0.85009 4.6005 0 2.6503 0.75008 4.8505 0.80008 2.2002 2.2502 3.8004 1.4502 1.5502 3.4504 2.4002 2.0502 0.85009 4.6005 0.85009 2.9503 0 5.0505-0.9501 2.1002-0.95009 3.2003-2.0002z"/>
   <path d="m202.32 157.31q0-3.3503 1.5502-6.0006 1.6002-2.6503 4.4504-4.1504 2.8503-1.5502 6.5506-1.5502 3.7504 0 6.5006 1.5502 2.7503 1.5002 4.2004 4.1504 1.5002 2.6503 1.5002 6.0006 0 3.3503-1.5002 6.0506-1.4501 2.6503-4.2004 4.2004-2.7503 1.5502-6.6007 1.5502-3.6004 0-6.4506-1.4001-2.8003-1.4001-4.4004-4.0504-1.6002-2.6503-1.6002-6.3506zm7.0507 0.05q0 1.7002 0.70007 3.1003 0.70007 1.3501 1.9002 2.1502t2.7003 0.80008q1.6502 0 2.8503-0.80008t1.8502-2.1502q0.65007-1.4001 0.65007-3.1003 0-1.7502-0.65007-3.1003-0.65006-1.3501-1.8502-2.1502t-2.8503-0.80008q-1.5002 0-2.7003 0.80008t-1.9002 2.1502q-0.70007 1.3501-0.70007 3.1003z"/>
   <path d="m237.86 146.66 0.55006 3.8504-0.10001-0.30003q1.3001-2.2002 3.2503-3.4003 1.9502-1.2501 4.7005-1.2501 1.8002 0 3.1503 0.50005 1.4001 0.50005 2.3502 1.5002 0.9501 0.9501 1.3001 2.5002l-0.25002 0.05q1.4001-2.0502 3.3503-3.3003 2.0002-1.2501 4.1504-1.2501 3.2503 0 5.1505 1.8502 1.9502 1.8002 2.0002 4.7005v16.402h-6.9507v-13.501q-0.05-1.4502-0.45005-2.3502-0.40004-0.95009-1.8502-1.0501-1.7002 0-2.9003 1.2001-1.1501 1.1501-1.7502 3.0003-0.55005 1.8002-0.55005 3.7504v8.9509h-7.0007v-13.501q-0.05-1.4502-0.55006-2.3502-0.45004-0.95009-1.9002-1.0501-1.6502 0-2.8003 1.2001-1.1001 1.1501-1.7002 2.9503-0.55005 1.8002-0.55005 3.7004v9.0509h-7.0007v-21.852z"/>
   <path d="m279.96 146.66 0.55006 3.8504-0.10001-0.30003q1.3001-2.2002 3.2503-3.4003 1.9502-1.2501 4.7005-1.2501 1.8002 0 3.1503 0.50005 1.4001 0.50005 2.3502 1.5002 0.9501 0.9501 1.3001 2.5002l-0.25002 0.05q1.4001-2.0502 3.3503-3.3003 2.0002-1.2501 4.1504-1.2501 3.2503 0 5.1505 1.8502 1.9502 1.8002 2.0002 4.7005v16.402h-6.9507v-13.501q-0.05-1.4502-0.45005-2.3502-0.40004-0.95009-1.8502-1.0501-1.7002 0-2.9003 1.2001-1.1501 1.1501-1.7502 3.0003-0.55005 1.8002-0.55005 3.7504v8.9509h-7.0007v-13.501q-0.05-1.4502-0.55006-2.3502-0.45004-0.95009-1.9002-1.0501-1.6502 0-2.8003 1.2001-1.1001 1.1501-1.7002 2.9503-0.55005 1.8002-0.55005 3.7004v9.0509h-7.0007v-21.852z"/>
  </g>
  <g transform="matrix(.28222 0 0 .28222 -155.06 -170.59)">
   <g fill="url(#linearGradient21425)" stroke-width="4.8405" aria-label="Wunder ">
    <path d="m409.86 1068.2h32.915l30.398 89.452-4.4532-1.9362 26.526-66.024 12.972 38.53-41.047 88.097zm71.445 0h27.881l35.045 86.548-5.0341-0.7745 26.139-85.773h30.205l-54.988 147.73z"/>
    <path d="m629.54 1213.8q-11.424 0-19.168-6.9703-7.7448-7.1639-8.132-18.394v-63.313h27.107v53.245q0.38724 5.615 2.9043 9.1001 2.517 3.2915 8.5192 3.2915t10.262-4.066q4.4532-4.066 6.7767-11.036 2.517-7.1639 2.517-16.07v-34.464h27.107v84.612h-24.59l-2.1298-15.49 0.38723 1.7425q-2.9043 5.2277-7.3575 9.2937-4.4532 4.066-10.649 6.1959-6.0022 2.3234-13.553 2.3234z"/>
    <path d="m736.15 1125.2 2.1298 15.102-0.38724-1.3554q4.4532-7.9383 12.585-12.779 8.132-5.0341 19.943-5.0341 12.004 0 19.943 7.1639 8.132 6.9703 8.3256 18.2v63.313h-27.107v-53.245q-0.19362-5.615-3.0979-8.9065-2.7107-3.4852-9.2937-3.4852-6.1958 0-10.843 4.066-4.6468 4.066-7.1639 11.036t-2.517 16.07v34.464h-27.107v-84.612z"/>
    <path d="m857.29 1212.1q-11.811 0-21.104-5.4213-9.2937-5.615-14.715-16.07-5.2277-10.455-5.2277-24.783t5.8086-24.396 15.877-15.296 22.847-5.2277q8.132 0 15.49 2.517 7.5511 2.5171 12.585 7.7448v8.5192-82.675h26.913v152.77h-27.107v-16.458l2.1298 5.8085q-6.583 5.4214-14.715 9.2938-8.132 3.6787-18.781 3.6787zm8.9065-22.847q5.4213 0 9.4873-1.3554 4.2596-1.5489 7.3575-4.2596 3.2915-2.9043 5.615-7.1639v-20.717q-1.549-4.2596-4.8405-7.1639-3.0979-3.0979-7.7448-4.6469-4.4532-1.7425-9.8746-1.7425-6.0022 0-11.23 3.0979-5.0341 2.9042-8.132 8.132-3.0979 5.2277-3.0979 12.004 0 6.7767 3.0979 12.198 3.0979 5.4214 8.132 8.5193 5.2277 3.0979 11.23 3.0979z"/>
    <path d="m981.52 1212.1q-15.49 0-26.332-5.8086-10.649-5.8085-16.264-16.07-5.615-10.262-5.615-23.622 0-12.779 6.583-23.041t17.619-16.264q11.036-6.1958 24.59-6.1958 18.2 0 29.817 10.649 11.811 10.456 15.296 30.398l-65.83 20.911-6.0022-14.715 47.63-16.07-5.6149 2.5171q-1.549-5.0341-5.615-8.7129-3.8724-3.8723-11.811-3.8723-6.0022 0-10.649 2.9042-4.4532 2.7107-6.9703 7.9384-2.3234 5.0341-2.3234 12.004 0 7.9384 2.9043 13.36 2.9043 5.2277 7.9384 7.9384t11.23 2.7107q4.4532 0 8.5192-1.549 4.2596-1.549 8.3256-4.066l12.004 20.136q-6.7767 3.8724-14.715 6.1958-7.7448 2.3234-14.715 2.3234z"/>
    <path d="m1067.6 1125.2 2.5171 23.234-0.5809-3.4852q3.6788-7.5511 10.068-12.779 6.3894-5.4214 12.585-8.3257 6.3894-2.9042 9.6809-2.9042l-1.3553 27.107q-9.4874-1.1617-16.264 3.0979-6.7767 4.2596-10.455 11.23-3.6788 6.9703-3.6788 14.328v33.109h-26.913v-84.612z"/>
   </g>
   <path d="m499.92 1068.2 21.281-0.3835 18.492 53.78 18.464-53.465 18.62 0.081-40.367 102.21z" fill="url(#linearGradient64981)"/>
   <path d="m426.81 1068.2 21.281-0.3835 18.492 53.78 14.695-53.441 11.58 28.119-29.559 74.15z" fill="url(#linearGradient65777)"/>
  </g>
 </g>
</svg>
