<?xml version="1.0" encoding="UTF-8"?>
<!-- Created with Inkscape (http://www.inkscape.org/) -->
<svg width="120.11mm" height="119.94mm" version="1.1" viewBox="0 0 120.11 119.94" xmlns="http://www.w3.org/2000/svg" xmlns:xlink="http://www.w3.org/1999/xlink">
 <defs>
  <filter id="filter4487-5" x="-.067139" y="-.067261" width="1.1343" height="1.1345" color-interpolation-filters="sRGB">
   <feGaussianBlur stdDeviation="11.369316"/>
  </filter>
  <filter id="filter37673" x="-.058028" y="-.058132" width="1.1161" height="1.1163" color-interpolation-filters="sRGB">
   <feGaussianBlur stdDeviation="6.9814482"/>
  </filter>
  <clipPath id="clipPath45017">
   <rect x="675.78" y="330.72" width="355.41" height="354.77" ry="177.38" fill="#ccc"/>
  </clipPath>
  <linearGradient id="SVGID_4_" x1="3867.9" x2="3867.3" y1="35.736" y2="83.1" gradientTransform="matrix(-1 0 0 1 3960.8 0)" gradientUnits="userSpaceOnUse">
   <stop fill="url(#linearGradient964)" stop-color="#36495E" offset="0"/>
   <stop fill="url(#linearGradient964)" stop-color="#0A1C33" offset="1"/>
  </linearGradient>
  <linearGradient id="linearGradient60605" x1="409.86" x2="1120.6" y1="1136.7" y2="1136.7" gradientTransform="translate(33.042 -61.85)" gradientUnits="userSpaceOnUse" xlink:href="#SVGID_5_"/>
  <linearGradient id="SVGID_5_" x1="76.014" x2="76.014" y1="83.144" y2=".8561" gradientUnits="userSpaceOnUse">
   <stop stop-color="#41B782" offset=".2"/>
   <stop stop-color="#86D169" offset="1"/>
  </linearGradient>
  <linearGradient id="linearGradient64981" x1="433.35" x2="501.41" y1="1119.8" y2="1119.8" gradientTransform="translate(98.948 -62.135)" gradientUnits="userSpaceOnUse" xlink:href="#SVGID_4_"/>
  <linearGradient id="linearGradient65777" x1="433.35" x2="501.41" y1="1119.8" y2="1119.8" gradientTransform="translate(25.841 -62.148)" gradientUnits="userSpaceOnUse" xlink:href="#SVGID_4_"/>
  <linearGradient id="linearGradient2950" x1="409.86" x2="1120.6" y1="1136.7" y2="1136.7" gradientTransform="translate(39.655 109.53)" gradientUnits="userSpaceOnUse" xlink:href="#SVGID_5_"/>
  <filter id="filter3530" x="-.041536" y="-.05193" width="1.0831" height="1.1039" color-interpolation-filters="sRGB">
   <feGaussianBlur stdDeviation="3.2135212"/>
  </filter>
  <clipPath id="clipPath5439">
   <rect x="-151.69" y="97.323" width="100.3" height="100.12" ry="50.062" fill="#ccc"/>
  </clipPath>
 </defs>
 <g transform="translate(159.34 -90.238)">
  <rect transform="matrix(.23886 0 0 .23886 -191.1 20.919)" x="181.2" y="338.42" width="406.41" height="405.68" ry="202.84" filter="url(#filter4487-5)"/>
  <rect x="-151.69" y="97.323" width="100.3" height="100.12" ry="50.062" fill="#ccc"/>
  <path d="m-132.95 110.85h61.054v61.054h-61.054z" fill="none" stroke-width=".28222"/>
  <path transform="matrix(.28222 0 0 .28222 -155.06 -171.82)" d="m195.1 989.67c-79.84 0-144.11 64.276-144.11 144.12 0 75.694 57.785 137.36 131.82 143.56l6.1618-112.37c-5.3748-1.1107-10.463-3.6082-14.589-7.2373-6.1976-5.3932-10.152-13.266-10.764-21.459-0.69223-8.3544 2.1129-16.923 7.6033-23.256 5.7673-6.7639 14.479-10.908 23.371-11.068 0.54313-0.016 1.0864-0.018 1.629 0 8.1376 0.1991 16.131 3.6638 21.821 9.4955 2.8296 2.7912 4.8807 6.2335 6.7583 9.7053-2.127 1.0579-4.2545 2.1146-6.3819 3.1716-0.74222 0.267-1.3504 0.8884-2.1511 0.9551-3.4481 9.0299-6.8968 18.06-10.345 27.09 0.83294-0.4495 1.6629-0.9052 2.4948-1.3567 1.4909 2.5261 2.9024 5.1112 4.445 7.5988 0.51145 1.0144-0.19987 2.1965-1.2005 2.5587-3.1978 1.8517-6.7053 3.1711-10.333 3.8723l6.5857 112.3c74.038-6.2031 131.82-67.866 131.82-143.56 0-79.84-64.276-144.12-144.12-144.12zm0.0123 122.74c-5.4729 0.056-10.877 2.2896-14.757 6.1618h5.0267c1.2399 3.6514 2.4803 7.3021 3.7206 10.953 0.29727-0.74 0.59533-1.4796 0.89259-2.2196-1.1674-2.9112-2.3348-5.8225-3.5019-8.7338h12.197c1.3656 3.3715 2.7312 6.7429 4.0969 10.114 1.3742-4.2918 2.7495-8.5837 4.1237-12.876-3.1802-2.0571-6.92-3.2313-10.703-3.3828-0.36505-0.016-0.73004-0.021-1.0949-0.018zm-19.897 14.229c-0.15905 0.4485-0.30231 0.9028-0.42991 1.3612-1.5834 5.5632-0.77665 11.75 2.2121 16.706 0.19384 0.3364 0.51284 0.8168 0.65455 1.0384 1.9246 2.8684 4.5732 5.2363 7.6137 6.8698-3.3503-8.6586-6.7001-17.317-10.05-25.975zm20.708 15.449c-1.9285 4.1389-3.8569 8.2783-5.7854 12.417 3.5084 0.8772 7.2389 0.8534 10.733-0.08-0.23801-0.5929-0.47603-1.1848-0.71406-1.7777-1.4112-3.5196-2.8226-7.0397-4.2338-10.559zm-2.4888 135.77c0.55734 0.01 1.1073 0.042 1.6661 0.042h0.52067c0.55888 0 1.1088-0.035 1.6662-0.042z" filter="url(#filter37673)" opacity=".51"/>
  <g transform="matrix(.28222 0 0 .28222 -342.41 3.9854)" clip-path="url(#clipPath45017)" opacity=".23427">
   <g stroke-width=".81244">
    <path d="m857.06 362.99c-79.839 0-144.11 64.276-144.11 144.12l282.84 282.84c0-79.84 64.274-144.12 144.11-144.12z"/>
    <path d="m712.94 507.11c0 39.906 16.061 75.912 42.097 101.95l282.84 282.84c-26.03-26.036-42.094-62.042-42.094-101.95z"/>
    <path d="m755.04 609.06c23.349 23.349 54.72 38.68 89.725 41.613l282.84 282.84c-35.01-2.933-66.38-18.263-89.73-41.612z"/>
    <path d="m844.76 650.67 6.162-112.37 282.84 282.84-6.16 112.37z"/>
    <path d="m850.93 538.3c-5.375-1.11-10.464-3.608-14.59-7.237l282.84 282.84c4.13 3.629 9.21 6.126 14.59 7.237z"/>
    <path d="m836.34 531.06c-0.532-0.464-1.049-0.946-1.548-1.445l282.84 282.84c0.5 0.499 1.02 0.981 1.55 1.445z"/>
    <path d="m834.79 529.62c-5.304-5.304-8.656-12.525-9.216-20.014l282.85 282.84c0.56 7.488 3.91 14.709 9.21 20.014z"/>
    <path d="m825.57 509.6c-0.692-8.354 2.113-16.923 7.603-23.256l282.84 282.84c-5.49 6.333-8.3 14.901-7.6 23.256z"/>
    <path d="m833.18 486.35c5.768-6.764 14.48-10.908 23.371-11.068l282.84 282.84c-8.89 0.16-17.6 4.304-23.37 11.068z"/>
    <path d="m856.55 475.28c0.543-0.016 1.086-0.018 1.629-4e-3l282.84 282.84c-0.54-0.014-1.09-0.012-1.63 4e-3z"/>
    <path d="m858.18 475.28c8.013 0.196 15.887 3.559 21.558 9.23l282.85 282.84c-5.67-5.671-13.55-9.034-21.56-9.23z"/>
    <path d="m879.73 484.5c0.088 0.088 0.176 0.177 0.262 0.266l282.84 282.84c-0.09-0.089-0.18-0.177-0.26-0.265z"/>
    <path d="m880 484.77c0.039 0.037 0.077 0.075 0.115 0.113l282.84 282.84c-0.03-0.038-0.07-0.076-0.11-0.114z"/>
    <path d="m880.11 484.88c2.77 2.771 4.792 6.167 6.644 9.592l282.84 282.84c-1.85-3.425-3.88-6.821-6.65-9.592z"/>
    <path d="m886.76 494.48c-2.127 1.058-4.255 2.114-6.382 3.171l282.85 282.84c2.12-1.057 4.25-2.114 6.38-3.171z"/>
    <path d="m880.37 497.65c-0.742 0.267-1.351 0.889-2.151 0.956l282.84 282.84c0.81-0.066 1.41-0.688 2.16-0.955z"/>
    <path d="m878.22 498.6c-3.448 9.029-6.897 18.059-10.345 27.089l282.84 282.84c3.45-9.03 6.9-18.06 10.34-27.09z"/>
    <path d="m867.88 525.69c0.833-0.449 1.663-0.905 2.494-1.356l282.84 282.84c-0.83 0.452-1.66 0.907-2.49 1.357z"/>
    <path d="m870.37 524.34c1.491 2.526 2.903 5.111 4.445 7.598l282.84 282.84c-1.54-2.488-2.95-5.073-4.45-7.599z"/>
    <path d="m874.82 531.93c0.512 1.015-0.199 2.197-1.2 2.559l282.84 282.84c1-0.362 1.71-1.545 1.2-2.559z"/>
    <path d="m873.62 534.49c-3.198 1.852-6.705 3.171-10.333 3.872l282.85 282.84c3.62-0.701 7.13-2.021 10.33-3.872z"/>
    <path d="m863.28 538.36 6.586 112.3 282.84 282.84-6.58-112.3z"/>
    <path d="m869.87 650.67c74.037-6.203 131.82-67.866 131.82-143.56l282.85 282.84c0 75.695-57.79 137.36-131.83 143.56z"/>
    <path d="m1001.7 507.11c0-39.92-16.066-75.949-42.115-102l282.84 282.84c26.05 26.049 42.12 62.078 42.12 102z"/>
    <path d="m959.58 405.11c-26.048-26.049-62.077-42.118-102-42.118l282.84 282.84c39.92 0 75.95 16.069 102 42.118z"/>
    <path d="m857.58 362.99h-0.521l282.84 282.84h0.52z"/>
    <path d="m857.07 485.74c-5.472 0.056-10.876 2.29-14.757 6.162l282.84 282.84c3.89-3.873 9.29-6.107 14.76-6.162z"/>
    <path d="m842.31 491.9h5.027l282.84 282.84h-5.03z"/>
    <path d="m847.34 491.9c1.24 3.651 2.48 7.302 3.72 10.953l282.84 282.84c-1.24-3.651-2.48-7.302-3.72-10.953z"/>
    <path d="m851.06 502.85c0.298-0.74 0.596-1.479 0.893-2.219l282.84 282.84c-0.29 0.74-0.59 1.48-0.89 2.22z"/>
    <path d="m851.95 500.63c-1.167-2.912-2.335-5.823-3.502-8.734l282.84 282.84c1.17 2.911 2.34 5.822 3.5 8.733z"/>
    <path d="m848.45 491.9h12.197l282.84 282.84h-12.2z"/>
    <path d="m860.65 491.9c1.366 3.371 2.731 6.743 4.097 10.114l282.85 282.84c-1.37-3.372-2.73-6.743-4.1-10.114z"/>
    <path d="m864.74 502.01c1.374-4.292 2.75-8.583 4.124-12.875l282.84 282.84c-1.37 4.292-2.75 8.584-4.12 12.876z"/>
    <path d="m868.87 489.14c-3.18-2.057-6.92-3.232-10.704-3.383l282.85 282.84c3.78 0.151 7.52 1.325 10.7 3.382z"/>
    <path d="m858.16 485.76c-0.365-0.016-0.73-0.022-1.095-0.018l282.84 282.84c0.37-4e-3 0.73 2e-3 1.1 0.018z"/>
    <path d="m857.07 485.74-0.012-122.74 282.84 282.84 0.01 122.74z"/>
    <path d="m837.17 499.97c-0.159 0.449-0.302 0.903-0.429 1.361l282.85 282.84c0.12-0.458 0.27-0.913 0.43-1.361z"/>
    <path d="m836.74 501.33c-1.584 5.564-0.777 11.75 2.212 16.706l282.84 282.84c-2.99-4.956-3.8-11.143-2.21-16.706z"/>
    <path d="m838.96 518.03c0.193 0.337 0.512 0.817 0.654 1.039l282.84 282.84c-0.14-0.222-0.46-0.702-0.65-1.039z"/>
    <path d="m839.61 519.07c0.754 1.123 1.618 2.169 2.574 3.125l282.85 282.84c-0.96-0.956-1.82-2.002-2.58-3.125z"/>
    <path d="m842.18 522.2c1.485 1.485 3.19 2.751 5.04 3.745l282.85 282.84c-1.85-0.994-3.56-2.259-5.04-3.744z"/>
    <path d="m847.22 525.94c-3.35-8.659-6.7-17.317-10.051-25.976l282.85 282.84c3.35 8.659 6.7 17.317 10.05 25.975z"/>
    <path d="m837.17 499.97 19.885-136.97 282.84 282.84-19.88 136.97z"/>
    <path d="m857.88 515.42c-1.928 4.139-3.857 8.279-5.785 12.417l282.84 282.84c1.93-4.139 3.85-8.278 5.78-12.417z"/>
    <path d="m852.1 527.83c3.508 0.878 7.239 0.854 10.733-0.08l282.84 282.84c-3.49 0.934-7.22 0.957-10.73 0.08z"/>
    <path d="m862.83 527.75c-0.238-0.593-0.476-1.185-0.714-1.778l282.85 282.84c0.23 0.593 0.47 1.185 0.71 1.778z"/>
    <path d="m862.11 525.97c-1.411-3.519-2.823-7.039-4.234-10.559l282.84 282.84c1.41 3.519 2.83 7.04 4.24 10.559z"/>
    <path d="m857.88 515.42-0.823-152.42 282.84 282.84 0.82 152.42z"/>
    <path d="m855.39 651.18c0.558 6e-3 1.108 0.041 1.667 0.041l282.84 282.84c-0.56 0-1.11-0.036-1.67-0.042z"/>
    <path d="m857.06 651.22h0.52l282.84 282.84h-0.52z"/>
    <path d="m857.58 651.22c0.559 0 1.109-0.035 1.666-0.041l282.85 282.84c-0.56 7e-3 -1.11 0.042-1.67 0.042z"/>
    <path d="m859.24 651.18-2.187-288.19 282.84 282.84 2.19 288.19z"/>
   </g>
   <g stroke-width=".81244">
    <path d="m857.06 362.99c-79.839 0-144.11 64.276-144.11 144.12l282.84 282.84c0-79.84 64.274-144.12 144.11-144.12z"/>
    <path d="m712.94 507.11c0 39.906 16.061 75.912 42.097 101.95l282.84 282.84c-26.03-26.036-42.094-62.042-42.094-101.95z"/>
    <path d="m755.04 609.06c23.349 23.349 54.72 38.68 89.725 41.613l282.84 282.84c-35.01-2.933-66.38-18.263-89.73-41.612z"/>
    <path d="m844.76 650.67 6.162-112.37 282.84 282.84-6.16 112.37z"/>
    <path d="m850.93 538.3c-5.375-1.11-10.464-3.608-14.59-7.237l282.84 282.84c4.13 3.629 9.21 6.126 14.59 7.237z"/>
    <path d="m836.34 531.06c-0.532-0.464-1.049-0.946-1.548-1.445l282.84 282.84c0.5 0.499 1.02 0.981 1.55 1.445z"/>
    <path d="m834.79 529.62c-5.304-5.304-8.656-12.525-9.216-20.014l282.85 282.84c0.56 7.488 3.91 14.709 9.21 20.014z"/>
    <path d="m825.57 509.6c-0.692-8.354 2.113-16.923 7.603-23.256l282.84 282.84c-5.49 6.333-8.3 14.901-7.6 23.256z"/>
    <path d="m833.18 486.35c5.768-6.764 14.48-10.908 23.371-11.068l282.84 282.84c-8.89 0.16-17.6 4.304-23.37 11.068z"/>
    <path d="m856.55 475.28c0.543-0.016 1.086-0.018 1.629-4e-3l282.84 282.84c-0.54-0.014-1.09-0.012-1.63 4e-3z"/>
    <path d="m858.18 475.28c8.013 0.196 15.887 3.559 21.558 9.23l282.85 282.84c-5.67-5.671-13.55-9.034-21.56-9.23z"/>
    <path d="m879.73 484.5c0.088 0.088 0.176 0.177 0.262 0.266l282.84 282.84c-0.09-0.089-0.18-0.177-0.26-0.265z"/>
    <path d="m880 484.77c0.039 0.037 0.077 0.075 0.115 0.113l282.84 282.84c-0.03-0.038-0.07-0.076-0.11-0.114z"/>
    <path d="m880.11 484.88c2.77 2.771 4.792 6.167 6.644 9.592l282.84 282.84c-1.85-3.425-3.88-6.821-6.65-9.592z"/>
    <path d="m886.76 494.48c-2.127 1.058-4.255 2.114-6.382 3.171l282.85 282.84c2.12-1.057 4.25-2.114 6.38-3.171z"/>
    <path d="m880.37 497.65c-0.742 0.267-1.351 0.889-2.151 0.956l282.84 282.84c0.81-0.066 1.41-0.688 2.16-0.955z"/>
    <path d="m878.22 498.6c-3.448 9.029-6.897 18.059-10.345 27.089l282.84 282.84c3.45-9.03 6.9-18.06 10.34-27.09z"/>
    <path d="m867.88 525.69c0.833-0.449 1.663-0.905 2.494-1.356l282.84 282.84c-0.83 0.452-1.66 0.907-2.49 1.357z"/>
    <path d="m870.37 524.34c1.491 2.526 2.903 5.111 4.445 7.598l282.84 282.84c-1.54-2.488-2.95-5.073-4.45-7.599z"/>
    <path d="m874.82 531.93c0.512 1.015-0.199 2.197-1.2 2.559l282.84 282.84c1-0.362 1.71-1.545 1.2-2.559z"/>
    <path d="m873.62 534.49c-3.198 1.852-6.705 3.171-10.333 3.872l282.85 282.84c3.62-0.701 7.13-2.021 10.33-3.872z"/>
    <path d="m863.28 538.36 6.586 112.3 282.84 282.84-6.58-112.3z"/>
    <path d="m869.87 650.67c74.037-6.203 131.82-67.866 131.82-143.56l282.85 282.84c0 75.695-57.79 137.36-131.83 143.56z"/>
    <path d="m1001.7 507.11c0-39.92-16.066-75.949-42.115-102l282.84 282.84c26.05 26.049 42.12 62.078 42.12 102z"/>
    <path d="m959.58 405.11c-26.048-26.049-62.077-42.118-102-42.118l282.84 282.84c39.92 0 75.95 16.069 102 42.118z"/>
    <path d="m857.58 362.99h-0.521l282.84 282.84h0.52z"/>
    <path d="m857.07 485.74c-5.472 0.056-10.876 2.29-14.757 6.162l282.84 282.84c3.89-3.873 9.29-6.107 14.76-6.162z"/>
    <path d="m842.31 491.9h5.027l282.84 282.84h-5.03z"/>
    <path d="m847.34 491.9c1.24 3.651 2.48 7.302 3.72 10.953l282.84 282.84c-1.24-3.651-2.48-7.302-3.72-10.953z"/>
    <path d="m851.06 502.85c0.298-0.74 0.596-1.479 0.893-2.219l282.84 282.84c-0.29 0.74-0.59 1.48-0.89 2.22z"/>
    <path d="m851.95 500.63c-1.167-2.912-2.335-5.823-3.502-8.734l282.84 282.84c1.17 2.911 2.34 5.822 3.5 8.733z"/>
    <path d="m848.45 491.9h12.197l282.84 282.84h-12.2z"/>
    <path d="m860.65 491.9c1.366 3.371 2.731 6.743 4.097 10.114l282.85 282.84c-1.37-3.372-2.73-6.743-4.1-10.114z"/>
    <path d="m864.74 502.01c1.374-4.292 2.75-8.583 4.124-12.875l282.84 282.84c-1.37 4.292-2.75 8.584-4.12 12.876z"/>
    <path d="m868.87 489.14c-3.18-2.057-6.92-3.232-10.704-3.383l282.85 282.84c3.78 0.151 7.52 1.325 10.7 3.382z"/>
    <path d="m858.16 485.76c-0.365-0.016-0.73-0.022-1.095-0.018l282.84 282.84c0.37-4e-3 0.73 2e-3 1.1 0.018z"/>
    <path d="m857.07 485.74-0.012-122.74 282.84 282.84 0.01 122.74z"/>
    <path d="m837.17 499.97c-0.159 0.449-0.302 0.903-0.429 1.361l282.85 282.84c0.12-0.458 0.27-0.913 0.43-1.361z"/>
    <path d="m836.74 501.33c-1.584 5.564-0.777 11.75 2.212 16.706l282.84 282.84c-2.99-4.956-3.8-11.143-2.21-16.706z"/>
    <path d="m838.96 518.03c0.193 0.337 0.512 0.817 0.654 1.039l282.84 282.84c-0.14-0.222-0.46-0.702-0.65-1.039z"/>
    <path d="m839.61 519.07c0.754 1.123 1.618 2.169 2.574 3.125l282.85 282.84c-0.96-0.956-1.82-2.002-2.58-3.125z"/>
    <path d="m842.18 522.2c1.485 1.485 3.19 2.751 5.04 3.745l282.85 282.84c-1.85-0.994-3.56-2.259-5.04-3.744z"/>
    <path d="m847.22 525.94c-3.35-8.659-6.7-17.317-10.051-25.976l282.85 282.84c3.35 8.659 6.7 17.317 10.05 25.975z"/>
    <path d="m837.17 499.97 19.885-136.97 282.84 282.84-19.88 136.97z"/>
    <path d="m857.88 515.42c-1.928 4.139-3.857 8.279-5.785 12.417l282.84 282.84c1.93-4.139 3.85-8.278 5.78-12.417z"/>
    <path d="m852.1 527.83c3.508 0.878 7.239 0.854 10.733-0.08l282.84 282.84c-3.49 0.934-7.22 0.957-10.73 0.08z"/>
    <path d="m862.83 527.75c-0.238-0.593-0.476-1.185-0.714-1.778l282.85 282.84c0.23 0.593 0.47 1.185 0.71 1.778z"/>
    <path d="m862.11 525.97c-1.411-3.519-2.823-7.039-4.234-10.559l282.84 282.84c1.41 3.519 2.83 7.04 4.24 10.559z"/>
    <path d="m857.88 515.42-0.823-152.42 282.84 282.84 0.82 152.42z"/>
    <path d="m855.39 651.18c0.558 6e-3 1.108 0.041 1.667 0.041l282.84 282.84c-0.56 0-1.11-0.036-1.67-0.042z"/>
    <path d="m857.06 651.22h0.52l282.84 282.84h-0.52z"/>
    <path d="m857.58 651.22c0.559 0 1.109-0.035 1.666-0.041l282.85 282.84c-0.56 7e-3 -1.11 0.042-1.67 0.042z"/>
    <path d="m859.24 651.18-2.187-288.19 282.84 282.84 2.19 288.19z"/>
   </g>
   <g stroke-width=".81244">
    <path d="m857.06 362.99c-79.839 0-144.11 64.276-144.11 144.12l282.84 282.84c0-79.84 64.274-144.12 144.11-144.12z"/>
    <path d="m712.94 507.11c0 39.906 16.061 75.912 42.097 101.95l282.84 282.84c-26.03-26.036-42.094-62.042-42.094-101.95z"/>
    <path d="m755.04 609.06c23.349 23.349 54.72 38.68 89.725 41.613l282.84 282.84c-35.01-2.933-66.38-18.263-89.73-41.612z"/>
    <path d="m844.76 650.67 6.162-112.37 282.84 282.84-6.16 112.37z"/>
    <path d="m850.93 538.3c-5.375-1.11-10.464-3.608-14.59-7.237l282.84 282.84c4.13 3.629 9.21 6.126 14.59 7.237z"/>
    <path d="m836.34 531.06c-0.532-0.464-1.049-0.946-1.548-1.445l282.84 282.84c0.5 0.499 1.02 0.981 1.55 1.445z"/>
    <path d="m834.79 529.62c-5.304-5.304-8.656-12.525-9.216-20.014l282.85 282.84c0.56 7.488 3.91 14.709 9.21 20.014z"/>
    <path d="m825.57 509.6c-0.692-8.354 2.113-16.923 7.603-23.256l282.84 282.84c-5.49 6.333-8.3 14.901-7.6 23.256z"/>
    <path d="m833.18 486.35c5.768-6.764 14.48-10.908 23.371-11.068l282.84 282.84c-8.89 0.16-17.6 4.304-23.37 11.068z"/>
    <path d="m856.55 475.28c0.543-0.016 1.086-0.018 1.629-4e-3l282.84 282.84c-0.54-0.014-1.09-0.012-1.63 4e-3z"/>
    <path d="m858.18 475.28c8.013 0.196 15.887 3.559 21.558 9.23l282.85 282.84c-5.67-5.671-13.55-9.034-21.56-9.23z"/>
    <path d="m879.73 484.5c0.088 0.088 0.176 0.177 0.262 0.266l282.84 282.84c-0.09-0.089-0.18-0.177-0.26-0.265z"/>
    <path d="m880 484.77c0.039 0.037 0.077 0.075 0.115 0.113l282.84 282.84c-0.03-0.038-0.07-0.076-0.11-0.114z"/>
    <path d="m880.11 484.88c2.77 2.771 4.792 6.167 6.644 9.592l282.84 282.84c-1.85-3.425-3.88-6.821-6.65-9.592z"/>
    <path d="m886.76 494.48c-2.127 1.058-4.255 2.114-6.382 3.171l282.85 282.84c2.12-1.057 4.25-2.114 6.38-3.171z"/>
    <path d="m880.37 497.65c-0.742 0.267-1.351 0.889-2.151 0.956l282.84 282.84c0.81-0.066 1.41-0.688 2.16-0.955z"/>
    <path d="m878.22 498.6c-3.448 9.029-6.897 18.059-10.345 27.089l282.84 282.84c3.45-9.03 6.9-18.06 10.34-27.09z"/>
    <path d="m867.88 525.69c0.833-0.449 1.663-0.905 2.494-1.356l282.84 282.84c-0.83 0.452-1.66 0.907-2.49 1.357z"/>
    <path d="m870.37 524.34c1.491 2.526 2.903 5.111 4.445 7.598l282.84 282.84c-1.54-2.488-2.95-5.073-4.45-7.599z"/>
    <path d="m874.82 531.93c0.512 1.015-0.199 2.197-1.2 2.559l282.84 282.84c1-0.362 1.71-1.545 1.2-2.559z"/>
    <path d="m873.62 534.49c-3.198 1.852-6.705 3.171-10.333 3.872l282.85 282.84c3.62-0.701 7.13-2.021 10.33-3.872z"/>
    <path d="m863.28 538.36 6.586 112.3 282.84 282.84-6.58-112.3z"/>
    <path d="m869.87 650.67c74.037-6.203 131.82-67.866 131.82-143.56l282.85 282.84c0 75.695-57.79 137.36-131.83 143.56z"/>
    <path d="m1001.7 507.11c0-39.92-16.066-75.949-42.115-102l282.84 282.84c26.05 26.049 42.12 62.078 42.12 102z"/>
    <path d="m959.58 405.11c-26.048-26.049-62.077-42.118-102-42.118l282.84 282.84c39.92 0 75.95 16.069 102 42.118z"/>
    <path d="m857.58 362.99h-0.521l282.84 282.84h0.52z"/>
    <path d="m857.07 485.74c-5.472 0.056-10.876 2.29-14.757 6.162l282.84 282.84c3.89-3.873 9.29-6.107 14.76-6.162z"/>
    <path d="m842.31 491.9h5.027l282.84 282.84h-5.03z"/>
    <path d="m847.34 491.9c1.24 3.651 2.48 7.302 3.72 10.953l282.84 282.84c-1.24-3.651-2.48-7.302-3.72-10.953z"/>
    <path d="m851.06 502.85c0.298-0.74 0.596-1.479 0.893-2.219l282.84 282.84c-0.29 0.74-0.59 1.48-0.89 2.22z"/>
    <path d="m851.95 500.63c-1.167-2.912-2.335-5.823-3.502-8.734l282.84 282.84c1.17 2.911 2.34 5.822 3.5 8.733z"/>
    <path d="m848.45 491.9h12.197l282.84 282.84h-12.2z"/>
    <path d="m860.65 491.9c1.366 3.371 2.731 6.743 4.097 10.114l282.85 282.84c-1.37-3.372-2.73-6.743-4.1-10.114z"/>
    <path d="m864.74 502.01c1.374-4.292 2.75-8.583 4.124-12.875l282.84 282.84c-1.37 4.292-2.75 8.584-4.12 12.876z"/>
    <path d="m868.87 489.14c-3.18-2.057-6.92-3.232-10.704-3.383l282.85 282.84c3.78 0.151 7.52 1.325 10.7 3.382z"/>
    <path d="m858.16 485.76c-0.365-0.016-0.73-0.022-1.095-0.018l282.84 282.84c0.37-4e-3 0.73 2e-3 1.1 0.018z"/>
    <path d="m857.07 485.74-0.012-122.74 282.84 282.84 0.01 122.74z"/>
    <path d="m837.17 499.97c-0.159 0.449-0.302 0.903-0.429 1.361l282.85 282.84c0.12-0.458 0.27-0.913 0.43-1.361z"/>
    <path d="m836.74 501.33c-1.584 5.564-0.777 11.75 2.212 16.706l282.84 282.84c-2.99-4.956-3.8-11.143-2.21-16.706z"/>
    <path d="m838.96 518.03c0.193 0.337 0.512 0.817 0.654 1.039l282.84 282.84c-0.14-0.222-0.46-0.702-0.65-1.039z"/>
    <path d="m839.61 519.07c0.754 1.123 1.618 2.169 2.574 3.125l282.85 282.84c-0.96-0.956-1.82-2.002-2.58-3.125z"/>
    <path d="m842.18 522.2c1.485 1.485 3.19 2.751 5.04 3.745l282.85 282.84c-1.85-0.994-3.56-2.259-5.04-3.744z"/>
    <path d="m847.22 525.94c-3.35-8.659-6.7-17.317-10.051-25.976l282.85 282.84c3.35 8.659 6.7 17.317 10.05 25.975z"/>
    <path d="m837.17 499.97 19.885-136.97 282.84 282.84-19.88 136.97z"/>
    <path d="m857.88 515.42c-1.928 4.139-3.857 8.279-5.785 12.417l282.84 282.84c1.93-4.139 3.85-8.278 5.78-12.417z"/>
    <path d="m852.1 527.83c3.508 0.878 7.239 0.854 10.733-0.08l282.84 282.84c-3.49 0.934-7.22 0.957-10.73 0.08z"/>
    <path d="m862.83 527.75c-0.238-0.593-0.476-1.185-0.714-1.778l282.85 282.84c0.23 0.593 0.47 1.185 0.71 1.778z"/>
    <path d="m862.11 525.97c-1.411-3.519-2.823-7.039-4.234-10.559l282.84 282.84c1.41 3.519 2.83 7.04 4.24 10.559z"/>
    <path d="m857.88 515.42-0.823-152.42 282.84 282.84 0.82 152.42z"/>
    <path d="m855.39 651.18c0.558 6e-3 1.108 0.041 1.667 0.041l282.84 282.84c-0.56 0-1.11-0.036-1.67-0.042z"/>
    <path d="m857.06 651.22h0.52l282.84 282.84h-0.52z"/>
    <path d="m857.58 651.22c0.559 0 1.109-0.035 1.666-0.041l282.85 282.84c-0.56 7e-3 -1.11 0.042-1.67 0.042z"/>
    <path d="m859.24 651.18-2.187-288.19 282.84 282.84 2.19 288.19z"/>
   </g>
   <path d="m857.06 362.99c-79.84 0-144.11 64.276-144.11 144.12 0 75.694 57.785 137.36 131.82 143.56l6.1618-112.37c-5.3748-1.1107-10.463-3.6081-14.589-7.2373-6.1976-5.3931-10.152-13.266-10.764-21.459-0.69223-8.3544 2.1129-16.923 7.6033-23.256 5.7673-6.7638 14.479-10.908 23.371-11.068 0.54313-0.0161 1.0864-0.0177 1.629-4e-3 8.1376 0.19913 16.131 3.6638 21.821 9.4955 2.8296 2.7911 4.8807 6.2334 6.7583 9.7053-2.127 1.0579-4.2545 2.1146-6.3819 3.1716-0.74222 0.26701-1.3504 0.88837-2.1511 0.95506-3.4481 9.03-6.8968 18.06-10.345 27.09 0.83294-0.44946 1.6629-0.90523 2.4948-1.3567 1.4909 2.5261 2.9024 5.1112 4.445 7.5988 0.51145 1.0144-0.19987 2.1966-1.2005 2.5587-3.1978 1.8518-6.7053 3.1711-10.333 3.8723l6.5857 112.3c74.038-6.2032 131.82-67.866 131.82-143.56 0-79.84-64.276-144.12-144.12-144.12zm0.0123 122.74c-5.4729 0.0555-10.877 2.2895-14.757 6.1618h5.0267c1.2399 3.6514 2.4803 7.3021 3.7206 10.953 0.29727-0.73999 0.59533-1.4796 0.89259-2.2196-1.1674-2.9113-2.3348-5.8225-3.5019-8.7338h12.197c1.3656 3.3715 2.7312 6.7429 4.0969 10.114 1.3742-4.2918 2.7495-8.5836 4.1237-12.875-3.1802-2.0572-6.92-3.2314-10.703-3.3829-0.36505-0.0158-0.73004-0.0215-1.0949-0.0179zm-19.897 14.229c-0.15905 0.44849-0.30231 0.9028-0.42991 1.3612-1.5834 5.5632-0.77665 11.75 2.2121 16.706 0.19384 0.33638 0.51284 0.81679 0.65455 1.0384 1.9246 2.8684 4.5732 5.2363 7.6137 6.8698-3.3503-8.6586-6.7001-17.317-10.05-25.975zm20.708 15.449c-1.9285 4.1389-3.8569 8.2783-5.7854 12.417 3.5084 0.87724 7.2389 0.85341 10.733-0.0803-0.23801-0.59294-0.47603-1.1848-0.71406-1.7777-1.4112-3.5195-2.8226-7.0397-4.2338-10.559zm-2.4888 135.77c0.55734 6e-3 1.1073 0.0416 1.6661 0.0416h0.52067c0.55888 0 1.1088-0.0353 1.6662-0.0416z"/>
  </g>
  <path d="m-100.53 106.4c-22.532 0-40.672 18.14-40.672 40.673 0 21.362 16.308 38.765 37.203 40.516l1.739-31.713c-1.5169-0.31346-2.953-1.0183-4.1174-2.0425-1.7491-1.5221-2.865-3.7439-3.038-6.0562-0.19537-2.3578 0.59631-4.776 2.1458-6.5634 1.6277-1.9089 4.0864-3.0785 6.5957-3.1236 0.15329-5e-3 0.30662-5e-3 0.45973 0 2.2966 0.0562 4.5525 1.034 6.1582 2.6798 0.79858 0.78774 1.3775 1.7592 1.9073 2.7391-0.60029 0.29856-1.2007 0.59678-1.8011 0.89509-0.20947 0.0754-0.3811 0.25073-0.60709 0.26955-0.97314 2.5484-1.9464 5.0968-2.9196 7.6453 0.23508-0.12686 0.4693-0.25547 0.70407-0.38289 0.42077 0.71292 0.81913 1.4425 1.2545 2.1446 0.14434 0.28628-0.05641 0.6199-0.33881 0.72212-0.90248 0.52259-1.8924 0.89495-2.9162 1.0928l1.8586 31.695c20.895-1.7507 37.204-19.153 37.204-40.516 0-22.532-18.14-40.673-40.673-40.673zm3e-3 34.641c-1.5446 0.0158-3.0696 0.64618-4.1648 1.739h1.4186c0.34993 1.0305 0.69998 2.0608 1.05 3.0913 0.0839-0.20884 0.16802-0.41757 0.25191-0.62642-0.32946-0.8216-0.65892-1.6432-0.98831-2.4649h3.4423c0.38539 0.95151 0.77082 1.903 1.1562 2.8545 0.38782-1.2112 0.77598-2.4225 1.1638-3.6338-0.89754-0.58056-1.953-0.91195-3.0208-0.9547-0.10303-5e-3 -0.20604-6e-3 -0.30901-5e-3zm-5.6154 4.0158c-0.0449 0.12658-0.0853 0.25479-0.12133 0.38416-0.44688 1.5701-0.21919 3.3161 0.6243 4.7148 0.0547 0.0949 0.14474 0.23051 0.18473 0.29306 0.54317 0.80952 1.2907 1.4778 2.1488 1.9388-0.94552-2.4436-1.8909-4.8872-2.8364-7.3308zm5.8442 4.36c-0.54427 1.1681-1.0885 2.3363-1.6328 3.5044 0.99015 0.24757 2.043 0.24085 3.0292-0.0226-0.06717-0.16733-0.13435-0.33437-0.20152-0.5017-0.39827-0.99331-0.7966-1.9868-1.1949-2.98z" fill="#e4e4e4"/>
  <g transform="matrix(.24194 0 0 .24194 -231.17 -152.78)" fill="url(#linearGradient2950)" filter="url(#filter3530)" opacity=".55562" stroke-width="4.8405" style="mix-blend-mode:normal" aria-label="W ">
   <path transform="matrix(.9375 0 0 .9375 -15.142 924.2)" d="m536.41 270.06-22.699 0.41016 4e-3 0.0137h-18.09l61.133 157.99 42.154-90.473 36.119 90.061 58.654-157.58h-23.174l-16.701-0.0723-19.695 57.029-19.725-57.367-22.699 0.41016h-19.855l-0.0254-0.0625-15.676 57.004z" fill="#000" stroke-width="5.1632"/>
  </g>
  <g clip-path="url(#clipPath5439)" fill="#666" opacity=".31733" stroke-width="1.1711">
   <path d="m-114.22 130.48-5.149 0.093 282.84 282.84 5.148-0.093z"/>
   <path d="m-119.37 130.57 1e-3 3e-3 282.84 282.84-1e-3 -3e-3z"/>
   <path d="m-119.37 130.57h-4.103l282.84 282.84h4.103z"/>
   <path d="m-123.47 130.57 13.866 35.834 282.84 282.84-13.865-35.835z"/>
   <path d="m-109.61 166.41 9.561-20.52 282.84 282.84-9.562 20.52z"/>
   <path d="m-100.04 145.89 8.1922 20.427 282.84 282.84-8.192-20.427z"/>
   <path d="m-91.853 166.32 13.304-35.741 282.84 282.84-13.304 35.742z"/>
   <path d="m-78.549 130.57h-5.2562l282.84 282.84h5.257z"/>
   <path d="m-83.805 130.57-3.7881-0.017 282.84 282.84 3.788 0.016z"/>
   <path d="m-87.593 130.56-4.4672 12.935 282.84 282.84 4.467-12.935z"/>
   <path d="m-92.061 143.49-4.4738-13.011 282.84 282.84 4.474 13.012z"/>
   <path d="m-96.534 130.48-5.1486 0.093 282.84 282.84 5.148-0.093z"/>
   <path d="m-101.68 130.57h-4.503l282.84 282.84h4.504z"/>
   <path d="m-106.19 130.57-6e-3 -0.015 282.84 282.84 6e-3 0.014z"/>
   <path d="m-106.19 130.56-3.556 12.93 282.84 282.84 3.555-12.929z"/>
   <path d="m-109.75 143.49-4.473-13.011 282.84 282.84 4.474 13.011z"/>
   <path d="m-114.22 130.48-5.1485 0.093 9.1e-4 3e-3h-4.1031l13.866 35.835 9.5612-20.521 8.1923 20.427 13.304-35.741h-5.2562l-3.7881-0.0164-4.4672 12.935-4.4738-13.012-5.1485 0.093h-4.5035l-6e-3 -0.0142-3.5555 12.929z"/>
  </g>
  <g transform="matrix(.24194 0 0 .24194 -230.63 -112.91)">
   <text x="436.70181" y="1147.9293" fill="url(#linearGradient60605)" font-family="'FiraCode Nerd Font Mono'" font-size="193.62px" letter-spacing="0px" stroke-width="4.8405" word-spacing="0px" style="line-height:1.25" xml:space="preserve"><tspan x="436.70181" y="1147.9293" font-family="'Josefin Sans'" font-weight="bold">W</tspan><tspan x="436.70181" y="1389.9531"/></text>
   <path d="m532.96 1006.4 21.281-0.3835 18.492 53.78 18.464-53.465 18.62 0.081-40.367 102.21z" fill="url(#linearGradient64981)"/>
   <path d="m459.85 1006.4 21.281-0.3835 18.492 53.78 14.695-53.441 11.58 28.119-29.559 74.15z" fill="url(#linearGradient65777)"/>
  </g>
 </g>
</svg>
